<svg width="800" height="486" viewBox="0 0 800 486" fill="none" xmlns="http://www.w3.org/2000/svg">
<rect width="800" height="486" fill="white"/>
<path fill-rule="evenodd" clip-rule="evenodd" d="M399.53 42.1082C379.33 42.1082 363 58.5586 363 78.9099C363 95.1777 373.463 108.948 387.978 113.822C389.793 114.188 390.458 113.03 390.458 112.056C390.458 111.203 390.398 108.278 390.398 105.231C380.236 107.425 378.12 100.844 378.12 100.844C376.487 96.579 374.067 95.4828 374.067 95.4828C370.741 93.2284 374.31 93.2284 374.31 93.2284C377.999 93.4721 379.935 97.006 379.935 97.006C383.2 102.611 388.462 101.027 390.579 100.052C390.881 97.6759 391.849 96.0309 392.878 95.1172C384.773 94.264 376.246 91.0958 376.246 76.9597C376.246 72.9384 377.696 69.6483 379.995 67.0895C379.632 66.1758 378.362 62.3975 380.358 57.3405C380.358 57.3405 383.443 56.3654 390.397 61.1181C393.375 60.3125 396.446 59.9027 399.53 59.8993C402.615 59.8993 405.759 60.3262 408.662 61.1181C415.618 56.3654 418.702 57.3405 418.702 57.3405C420.699 62.3975 419.428 66.1758 419.065 67.0895C421.424 69.6483 422.815 72.9384 422.815 76.9597C422.815 91.0958 414.288 94.2027 406.122 95.1172C407.453 96.2747 408.602 98.4678 408.602 101.941C408.602 106.876 408.542 110.837 408.542 112.055C408.542 113.03 409.207 114.188 411.022 113.823C425.537 108.947 436 95.1777 436 78.9099C436.06 58.5586 419.67 42.1082 399.53 42.1082Z" fill="#24292F"/>
<path fill-rule="evenodd" clip-rule="evenodd" d="M721.53 357.108C701.33 357.108 685 373.559 685 393.91C685 410.178 695.463 423.948 709.978 428.822C711.793 429.188 712.458 428.03 712.458 427.056C712.458 426.203 712.398 423.278 712.398 420.231C702.236 422.425 700.12 415.844 700.12 415.844C698.487 411.579 696.067 410.483 696.067 410.483C692.741 408.228 696.31 408.228 696.31 408.228C699.999 408.472 701.935 412.006 701.935 412.006C705.2 417.611 710.462 416.027 712.579 415.052C712.881 412.676 713.849 411.031 714.878 410.117C706.773 409.264 698.246 406.096 698.246 391.96C698.246 387.938 699.696 384.648 701.995 382.09C701.632 381.176 700.362 377.397 702.358 372.34C702.358 372.34 705.443 371.365 712.397 376.118C715.375 375.312 718.446 374.903 721.53 374.899C724.615 374.899 727.759 375.326 730.662 376.118C737.618 371.365 740.702 372.34 740.702 372.34C742.699 377.397 741.428 381.176 741.065 382.09C743.424 384.648 744.815 387.938 744.815 391.96C744.815 406.096 736.288 409.203 728.122 410.117C729.453 411.275 730.602 413.468 730.602 416.941C730.602 421.876 730.542 425.837 730.542 427.055C730.542 428.03 731.207 429.188 733.022 428.823C747.537 423.947 758 410.178 758 393.91C758.06 373.559 741.67 357.108 721.53 357.108Z" fill="#24292F"/>
<path d="M101.928 104.9C99.1331 101.199 95.517 98.1985 91.3648 96.1335C87.2125 94.0684 82.6375 92.9958 78 93C73.3626 92.9958 68.7876 94.0684 64.6353 96.1335C60.4831 98.1985 56.867 101.199 54.0721 104.9M101.928 104.9C107.382 100.049 111.229 93.6542 112.965 86.5644C114.701 79.4745 114.241 72.0243 111.646 65.2019C109.051 58.3795 104.443 52.5071 98.4336 48.3636C92.4243 44.2201 85.2974 42.0012 77.9981 42.0012C70.6987 42.0012 63.5718 44.2201 57.5625 48.3636C51.5532 52.5071 46.9454 58.3795 44.3502 65.2019C41.755 72.0243 41.2951 79.4745 43.0313 86.5644C44.7676 93.6542 48.6181 100.049 54.0721 104.9M101.928 104.9C95.3441 110.773 86.8226 114.013 78 114C69.1762 114.014 60.657 110.774 54.0721 104.9M90 69C90 72.1826 88.7358 75.2348 86.4853 77.4853C84.2349 79.7357 81.1826 81 78 81C74.8175 81 71.7652 79.7357 69.5148 77.4853C67.2643 75.2348 66.0001 72.1826 66.0001 69C66.0001 65.8174 67.2643 62.7652 69.5148 60.5147C71.7652 58.2643 74.8175 57 78 57C81.1826 57 84.2349 58.2643 86.4853 60.5147C88.7358 62.7652 90 65.8174 90 69Z" stroke="black" stroke-width="4" stroke-linecap="round" stroke-linejoin="round"/>
<path d="M715.383 51.3343V68.1412C715.383 69.0103 715.212 69.8709 714.879 70.6738C714.547 71.4767 714.059 72.2063 713.445 72.8209L701.412 84.854M715.383 51.3343C714.645 51.4019 713.909 51.4813 713.177 51.5754M715.383 51.3343C719.786 50.9249 724.217 50.9249 728.619 51.3343M701.412 84.854L703.676 84.2863C709.833 82.765 716.33 83.4877 722.001 86.3246C727.672 89.1616 734.169 89.8843 740.326 88.363L744.944 87.207M701.412 84.854L694.935 91.3338C691.308 94.9546 693.02 101.09 698.073 101.952C705.85 103.282 713.845 103.973 722.001 103.973C730.02 103.976 738.024 103.3 745.929 101.952C750.979 101.09 752.691 94.9546 749.067 91.3308L744.944 87.207M728.619 51.3343V68.1412C728.619 69.8972 729.316 71.5826 730.557 72.8209L744.944 87.207M728.619 51.3343C729.357 51.4019 730.093 51.4813 730.825 51.5754" stroke="black" stroke-width="4" stroke-linecap="round" stroke-linejoin="round"/>
<rect x="31" y="172" width="738" height="122" stroke="black" stroke-opacity="0.25" stroke-width="2"/>
<g clip-path="url(#clip0_145_2)">
<path d="M452.376 201.277H507.237V211.403H485.474V264.674H474.592V211.403H452.376V201.277ZM362.151 201.277V211.403H318.176V227.692H353.541V237.818H318.176V254.548H362.151V264.675H307.295V211.403H307.29V201.277H362.151ZM389.545 201.304H375.304L426.31 264.7H440.592L415.086 233.024L440.551 201.352L426.31 201.374L407.956 224.17L389.545 201.304ZM404.157 246.588L397.026 237.722L375.263 264.749H389.545L404.157 246.588Z" fill="black"/>
<path fill-rule="evenodd" clip-rule="evenodd" d="M307.676 264.674L256.602 201.251H243V264.648H253.881V214.802L294.007 264.674H307.676Z" fill="black"/>
<path d="M509.683 264.287C509.304 264.293 508.928 264.223 508.577 264.081C508.226 263.938 507.908 263.727 507.64 263.459C507.073 262.906 506.792 262.238 506.799 261.446C506.792 260.676 507.073 260.015 507.64 259.463C507.908 259.195 508.226 258.983 508.577 258.841C508.928 258.699 509.304 258.628 509.683 258.635C510.449 258.635 511.12 258.91 511.688 259.463C512.263 260.014 512.55 260.676 512.558 261.446C512.557 261.951 512.416 262.446 512.152 262.877C511.893 263.302 511.53 263.655 511.098 263.902C510.67 264.157 510.181 264.291 509.683 264.287ZM528.255 237.579H533.077V256.157C533.07 257.864 532.701 259.324 531.979 260.552C531.249 261.78 530.238 262.717 528.941 263.378C527.651 264.032 526.139 264.367 524.421 264.367C522.85 264.367 521.443 264.083 520.189 263.531C518.936 262.979 517.941 262.151 517.211 261.061C516.473 259.971 516.112 258.612 516.112 256.985H520.942C520.949 257.697 521.111 258.315 521.42 258.83C521.725 259.34 522.171 259.752 522.703 260.014C523.256 260.291 523.89 260.429 524.605 260.429C525.38 260.429 526.043 260.269 526.581 259.942C527.119 259.622 527.532 259.142 527.82 258.503C528.1 257.872 528.248 257.087 528.255 256.157V237.579ZM552.917 244.845C552.8 243.719 552.283 242.839 551.384 242.215C550.477 241.583 549.305 241.27 547.867 241.27C546.857 241.27 545.987 241.423 545.265 241.721C544.542 242.026 543.982 242.432 543.598 242.949C543.215 243.464 543.023 244.053 543.008 244.714C543.008 245.266 543.141 245.745 543.399 246.145C543.657 246.552 544.003 246.894 544.453 247.17C544.916 247.461 545.411 247.698 545.928 247.875C546.473 248.063 547.019 248.223 547.564 248.354L550.079 248.971C551.08 249.199 552.06 249.515 553.006 249.916C553.916 250.293 554.767 250.796 555.534 251.413C556.272 252.006 556.875 252.749 557.304 253.592C557.739 254.442 557.961 255.438 557.961 256.586C557.961 258.133 557.562 259.491 556.758 260.669C555.955 261.838 554.797 262.754 553.279 263.415C551.767 264.069 549.939 264.403 547.786 264.403C545.707 264.403 543.893 264.083 542.367 263.444C540.834 262.812 539.638 261.882 538.776 260.662C537.913 259.441 537.449 257.952 537.383 256.201H542.161C542.227 257.116 542.522 257.879 543.023 258.496C543.532 259.106 544.195 259.557 545.006 259.862C545.825 260.16 546.739 260.312 547.749 260.312C548.804 260.312 549.732 260.153 550.536 259.841C551.332 259.528 551.959 259.092 552.409 258.525C552.866 257.965 553.095 257.305 553.102 256.549C553.095 255.859 552.888 255.285 552.49 254.834C552.084 254.384 551.524 254.006 550.808 253.701C549.99 253.364 549.147 253.089 548.287 252.88L545.235 252.11C543.03 251.55 541.283 250.701 540.007 249.56C538.725 248.419 538.09 246.908 538.09 245.011C538.09 243.457 538.518 242.091 539.381 240.922C540.236 239.752 541.408 238.843 542.89 238.197C544.38 237.543 546.061 237.224 547.933 237.224C549.836 237.224 551.501 237.543 552.94 238.197C554.377 238.844 555.506 239.745 556.323 240.893C557.142 242.041 557.57 243.355 557.592 244.845H552.917Z" fill="black"/>
</g>
<g clip-path="url(#clip1_145_2)">
<path d="M67.6009 205L53.8009 181L40.0009 205H67.6009ZM81.5197 203.907L93.0524 182.091H88.0641L80.1085 197.935L72.1529 182.091H67.1645L78.6973 203.907H81.5197ZM160.115 182.091V203.907H155.986V182.091H160.115ZM137.127 195.765C137.127 194.064 137.482 192.569 138.192 191.278C138.902 189.988 139.891 188.994 141.16 188.298C142.429 187.601 143.914 187.253 145.613 187.253C147.118 187.253 148.474 187.581 149.678 188.236C150.882 188.892 151.84 189.865 152.549 191.156C153.259 192.446 153.625 194.023 153.646 195.888V196.84H141.483C141.569 198.192 141.967 199.257 142.677 200.036C143.408 200.794 144.387 201.173 145.613 201.173C146.387 201.173 147.097 200.968 147.742 200.558C148.387 200.148 148.871 199.595 149.194 198.899L153.421 199.206C152.904 200.742 151.936 201.972 150.517 202.893C149.097 203.815 147.462 204.276 145.613 204.276C143.914 204.276 142.429 203.928 141.16 203.231C139.891 202.535 138.902 201.541 138.192 200.251C137.482 198.96 137.127 197.465 137.127 195.765ZM149.387 194.228C149.237 192.897 148.817 191.924 148.129 191.309C147.441 190.674 146.602 190.357 145.613 190.357C144.473 190.357 143.548 190.695 142.838 191.371C142.128 192.047 141.687 192.999 141.515 194.228H149.387ZM130.16 191.309C130.848 191.862 131.278 192.63 131.451 193.614L135.71 193.399C135.559 192.149 135.118 191.063 134.387 190.142C133.655 189.22 132.709 188.513 131.548 188.021C130.408 187.509 129.149 187.253 127.773 187.253C126.073 187.253 124.589 187.601 123.32 188.298C122.051 188.994 121.062 189.988 120.352 191.278C119.642 192.569 119.287 194.064 119.287 195.765C119.287 197.465 119.642 198.96 120.352 200.251C121.062 201.541 122.051 202.535 123.32 203.231C124.589 203.928 126.073 204.276 127.773 204.276C129.192 204.276 130.483 204.02 131.644 203.508C132.806 202.975 133.752 202.228 134.483 201.265C135.215 200.302 135.656 199.175 135.806 197.885L131.515 197.7C131.365 198.786 130.945 199.626 130.257 200.22C129.568 200.794 128.74 201.081 127.773 201.081C126.439 201.081 125.407 200.62 124.675 199.698C123.944 198.776 123.578 197.465 123.578 195.765C123.578 194.064 123.944 192.753 124.675 191.832C125.407 190.91 126.439 190.449 127.773 190.449C128.698 190.449 129.493 190.736 130.16 191.309ZM109.21 187.621H113.053L113.164 190.755C113.437 189.868 113.816 189.179 114.302 188.689C115.006 187.977 115.989 187.621 117.248 187.621H118.817V190.976H117.216C116.32 190.976 115.583 191.098 115.006 191.342C114.451 191.586 114.024 191.972 113.726 192.501C113.448 193.03 113.309 193.701 113.309 194.514V203.907H109.21V187.621ZM91.4837 191.278C90.7738 192.569 90.4189 194.064 90.4189 195.765C90.4189 197.465 90.7738 198.96 91.4837 200.251C92.1935 201.541 93.1826 202.535 94.4518 203.231C95.7211 203.928 97.2049 204.276 98.9043 204.276C100.754 204.276 102.389 203.815 103.809 202.893C105.228 201.972 106.196 200.742 106.712 199.206L102.485 198.899C102.163 199.595 101.679 200.148 101.034 200.558C100.389 200.968 99.6787 201.173 98.9043 201.173C97.6784 201.173 96.6995 200.794 95.9684 200.036C95.2586 199.257 94.8607 198.192 94.7744 196.84H106.938V195.888C106.917 194.023 106.551 192.446 105.841 191.156C105.131 189.865 104.174 188.892 102.97 188.236C101.765 187.581 100.41 187.253 98.9043 187.253C97.2049 187.253 95.7211 187.601 94.4518 188.298C93.1826 188.994 92.1935 189.988 91.4837 191.278ZM101.421 191.309C102.109 191.924 102.529 192.897 102.679 194.228H94.8067C94.9789 192.999 95.4197 192.047 96.1295 191.371C96.8394 190.695 97.7643 190.357 98.9043 190.357C99.8938 190.357 100.732 190.674 101.421 191.309Z" fill="black"/>
</g>
<path d="M352.061 79.0607C352.646 78.4749 352.646 77.5251 352.061 76.9393L342.515 67.3934C341.929 66.8076 340.979 66.8076 340.393 67.3934C339.808 67.9792 339.808 68.9289 340.393 69.5147L348.879 78L340.393 86.4853C339.808 87.0711 339.808 88.0208 340.393 88.6066C340.979 89.1924 341.929 89.1924 342.515 88.6066L352.061 79.0607ZM126 79.5H351V76.5H126V79.5Z" fill="black"/>
<path d="M78 237L78 235.5L76.5 235.5L76.5 237L78 237ZM228.061 238.061C228.646 237.475 228.646 236.525 228.061 235.939L218.515 226.393C217.929 225.808 216.979 225.808 216.393 226.393C215.808 226.979 215.808 227.929 216.393 228.515L224.879 237L216.393 245.485C215.808 246.071 215.808 247.021 216.393 247.607C216.979 248.192 217.929 248.192 218.515 247.607L228.061 238.061ZM79.5 345L79.5 237L76.5 237L76.5 345L79.5 345ZM78 238.5L227 238.5L227 235.5L78 235.5L78 238.5Z" fill="black"/>
<path d="M675.061 79.0607C675.646 78.4749 675.646 77.5251 675.061 76.9393L665.515 67.3934C664.929 66.8076 663.979 66.8076 663.393 67.3934C662.808 67.9792 662.808 68.9289 663.393 69.5147L671.879 78L663.393 86.4853C662.808 87.0711 662.808 88.0208 663.393 88.6066C663.979 89.1924 664.929 89.1924 665.515 88.6066L675.061 79.0607ZM449 79.5H674V76.5H449V79.5Z" fill="black"/>
<path d="M570.94 246.939C570.354 247.525 570.354 248.475 570.94 249.061L580.486 258.607C581.071 259.192 582.021 259.192 582.607 258.607C583.193 258.021 583.193 257.071 582.607 256.485L574.122 248L582.607 239.515C583.193 238.929 583.193 237.979 582.607 237.393C582.021 236.808 581.071 236.808 580.486 237.393L570.94 246.939ZM721 248L722.5 248L722.5 246.5L721 246.5L721 248ZM719.939 346.061C720.525 346.646 721.475 346.646 722.061 346.061L731.607 336.515C732.192 335.929 732.192 334.979 731.607 334.393C731.021 333.808 730.071 333.808 729.485 334.393L721 342.879L712.515 334.393C711.929 333.808 710.979 333.808 710.393 334.393C709.808 334.979 709.808 335.929 710.393 336.515L719.939 346.061ZM572 249.5L721 249.5L721 246.5L572 246.5L572 249.5ZM719.5 248L719.5 345L722.5 345L722.5 248L719.5 248Z" fill="black"/>
<path d="M721 218L721 219.5L722.5 219.5L722.5 218L721 218ZM570.939 216.939C570.353 217.525 570.353 218.475 570.939 219.061L580.485 228.607C581.071 229.192 582.021 229.192 582.606 228.607C583.192 228.021 583.192 227.071 582.606 226.485L574.121 218L582.606 209.515C583.192 208.929 583.192 207.979 582.606 207.393C582.021 206.808 581.071 206.808 580.485 207.393L570.939 216.939ZM719.5 146L719.5 218L722.5 218L722.5 146L719.5 146ZM721 216.5L572 216.5L572 219.5L721 219.5L721 216.5Z" fill="black"/>
<path d="M300.061 275.939C299.475 275.354 298.525 275.354 297.939 275.939L288.393 285.485C287.808 286.071 287.808 287.021 288.393 287.607C288.979 288.192 289.929 288.192 290.515 287.607L299 279.121L307.485 287.607C308.071 288.192 309.021 288.192 309.607 287.607C310.192 287.021 310.192 286.071 309.607 285.485L300.061 275.939ZM297.939 358.061C298.525 358.646 299.475 358.646 300.061 358.061L309.607 348.515C310.192 347.929 310.192 346.979 309.607 346.393C309.021 345.808 308.071 345.808 307.485 346.393L299 354.879L290.515 346.393C289.929 345.808 288.979 345.808 288.393 346.393C287.808 346.979 287.808 347.929 288.393 348.515L297.939 358.061ZM297.5 277L297.5 357L300.5 357L300.5 277L297.5 277Z" fill="black"/>
<path d="M406.061 275.939C405.475 275.354 404.525 275.354 403.939 275.939L394.393 285.485C393.808 286.071 393.808 287.021 394.393 287.607C394.979 288.192 395.929 288.192 396.515 287.607L405 279.121L413.485 287.607C414.071 288.192 415.021 288.192 415.607 287.607C416.192 287.021 416.192 286.071 415.607 285.485L406.061 275.939ZM403.939 358.061C404.525 358.646 405.475 358.646 406.061 358.061L415.607 348.515C416.192 347.929 416.192 346.979 415.607 346.393C415.021 345.808 414.071 345.808 413.485 346.393L405 354.879L396.515 346.393C395.929 345.808 394.979 345.808 394.393 346.393C393.808 346.979 393.808 347.929 394.393 348.515L403.939 358.061ZM403.5 277L403.5 357L406.5 357L406.5 277L403.5 277Z" fill="black"/>
<path d="M374.849 138.2C372.662 138.2 370.975 137.567 369.789 136.3C368.615 135.033 368.029 133.267 368.029 131C368.029 129.56 368.302 128.3 368.849 127.22C369.409 126.14 370.189 125.3 371.189 124.7C372.189 124.1 373.349 123.8 374.669 123.8C375.762 123.8 376.715 123.987 377.529 124.36C378.355 124.72 378.995 125.247 379.449 125.94C379.915 126.62 380.162 127.44 380.189 128.4H378.309C378.269 127.653 378.069 127.053 377.709 126.6C377.362 126.147 376.915 125.82 376.369 125.62C375.835 125.407 375.269 125.3 374.669 125.3C373.215 125.3 372.069 125.807 371.229 126.82C370.389 127.833 369.969 129.227 369.969 131C369.969 134.8 371.635 136.7 374.969 136.7C376.102 136.7 377.122 136.467 378.029 136V132.4H374.589V130.92H379.829V136.98C378.255 137.793 376.595 138.2 374.849 138.2ZM382.829 138V127.6H384.629V138H382.829ZM383.729 126.34C383.396 126.34 383.116 126.233 382.889 126.02C382.663 125.793 382.549 125.507 382.549 125.16C382.549 124.813 382.663 124.533 382.889 124.32C383.116 124.107 383.396 124 383.729 124C384.049 124 384.323 124.107 384.549 124.32C384.776 124.533 384.889 124.813 384.889 125.16C384.889 125.507 384.776 125.793 384.549 126.02C384.323 126.233 384.049 126.34 383.729 126.34ZM391.168 138C390.581 138 390.094 137.927 389.708 137.78C389.334 137.62 389.054 137.347 388.868 136.96C388.694 136.56 388.608 136 388.608 135.28V129H386.608V127.6H388.608V125.02H390.408V127.6H393.168V129H390.408V135.14C390.408 135.593 390.448 135.927 390.528 136.14C390.621 136.34 390.768 136.467 390.968 136.52C391.168 136.573 391.428 136.6 391.748 136.6H393.168V138H391.168ZM395.626 138V124H397.506V130.26H404.626V124H406.506V138H404.626V131.7H397.506V138H395.626ZM413.441 138.2C412.308 138.2 411.401 137.9 410.721 137.3C410.055 136.687 409.721 135.72 409.721 134.4V127.6H411.521V134C411.521 135.04 411.735 135.76 412.161 136.16C412.588 136.547 413.128 136.74 413.781 136.74C414.275 136.74 414.728 136.647 415.141 136.46C415.568 136.273 415.908 135.953 416.161 135.5C416.428 135.033 416.561 134.407 416.561 133.62V127.6H418.361V138H416.661V136.46C416.301 137.087 415.828 137.533 415.241 137.8C414.655 138.067 414.055 138.2 413.441 138.2ZM426.678 138.2C425.145 138.2 424.031 137.613 423.338 136.44V138H421.638V124H423.438V129C424.145 127.933 425.225 127.4 426.678 127.4C427.625 127.4 428.418 127.64 429.058 128.12C429.711 128.6 430.205 129.247 430.538 130.06C430.885 130.86 431.058 131.767 431.058 132.78C431.058 133.807 430.885 134.733 430.538 135.56C430.205 136.373 429.711 137.02 429.058 137.5C428.418 137.967 427.625 138.2 426.678 138.2ZM426.258 136.8C427.245 136.8 427.978 136.447 428.458 135.74C428.951 135.033 429.198 134.047 429.198 132.78C429.198 131.62 428.965 130.667 428.498 129.92C428.045 129.173 427.298 128.8 426.258 128.8C425.405 128.8 424.698 129.107 424.138 129.72C423.591 130.32 423.318 131.347 423.318 132.8C423.318 134.253 423.591 135.287 424.138 135.9C424.698 136.5 425.405 136.8 426.258 136.8Z" fill="black"/>
<path d="M347.4 307.6H348.78C348.687 308.4 348.54 309.2 348.34 310C348.14 310.787 347.86 311.54 347.5 312.26C347.14 312.98 346.667 313.647 346.08 314.26C345.493 314.86 344.76 315.38 343.88 315.82C343.8 315.66 343.667 315.473 343.48 315.26C343.307 315.047 343.147 314.88 343 314.76C343.813 314.387 344.487 313.933 345.02 313.4C345.553 312.853 345.98 312.267 346.3 311.64C346.62 311 346.86 310.34 347.02 309.66C347.193 308.967 347.32 308.28 347.4 307.6ZM343.74 310.46L344.46 309.4C345.153 309.64 345.873 309.927 346.62 310.26C347.367 310.58 348.067 310.92 348.72 311.28C349.387 311.627 349.94 311.953 350.38 312.26L349.64 313.44C349.2 313.12 348.647 312.773 347.98 312.4C347.327 312.027 346.627 311.667 345.88 311.32C345.147 310.973 344.433 310.687 343.74 310.46ZM352.12 307.06H353.54C353.54 307.06 353.54 307.1 353.54 307.18C353.54 307.247 353.54 307.333 353.54 307.44C353.54 307.533 353.54 307.613 353.54 307.68C353.473 309.253 353.4 310.527 353.32 311.5C353.24 312.473 353.147 313.213 353.04 313.72C352.933 314.227 352.793 314.573 352.62 314.76C352.473 314.96 352.307 315.1 352.12 315.18C351.933 315.26 351.7 315.313 351.42 315.34C351.18 315.367 350.847 315.38 350.42 315.38C350.007 315.367 349.56 315.347 349.08 315.32C349.067 315.12 349.027 314.893 348.96 314.64C348.893 314.373 348.8 314.147 348.68 313.96C349.147 314 349.573 314.027 349.96 314.04C350.347 314.04 350.62 314.04 350.78 314.04C351.073 314.067 351.287 314 351.42 313.84C351.54 313.707 351.64 313.413 351.72 312.96C351.813 312.507 351.893 311.827 351.96 310.92C352.027 310.013 352.08 308.807 352.12 307.3V307.06ZM346 317.7H347.38V322.54C347.38 322.78 347.42 322.933 347.5 323C347.58 323.067 347.76 323.1 348.04 323.1C348.093 323.1 348.207 323.1 348.38 323.1C348.553 323.1 348.74 323.1 348.94 323.1C349.153 323.1 349.347 323.1 349.52 323.1C349.693 323.1 349.827 323.1 349.92 323.1C350.093 323.1 350.227 323.053 350.32 322.96C350.413 322.853 350.48 322.64 350.52 322.32C350.56 322 350.587 321.5 350.6 320.82C350.693 320.9 350.813 320.98 350.96 321.06C351.107 321.127 351.26 321.187 351.42 321.24C351.58 321.293 351.727 321.34 351.86 321.38C351.82 322.193 351.74 322.82 351.62 323.26C351.5 323.713 351.313 324.02 351.06 324.18C350.82 324.353 350.487 324.44 350.06 324.44C349.993 324.44 349.853 324.44 349.64 324.44C349.427 324.44 349.2 324.44 348.96 324.44C348.72 324.44 348.493 324.44 348.28 324.44C348.08 324.44 347.933 324.44 347.84 324.44C347.347 324.44 346.96 324.387 346.68 324.28C346.413 324.173 346.233 323.98 346.14 323.7C346.047 323.42 346 323.04 346 322.56V317.7ZM344.1 318.38L345.3 318.7C345.233 319.287 345.133 319.88 345 320.48C344.88 321.08 344.707 321.647 344.48 322.18C344.253 322.7 343.967 323.147 343.62 323.52L342.5 322.8C342.82 322.467 343.08 322.067 343.28 321.6C343.493 321.12 343.667 320.607 343.8 320.06C343.933 319.5 344.033 318.94 344.1 318.38ZM346.32 315.88L347.22 315C347.66 315.213 348.107 315.473 348.56 315.78C349.013 316.087 349.44 316.4 349.84 316.72C350.24 317.04 350.56 317.34 350.8 317.62L349.88 318.62C349.64 318.34 349.327 318.033 348.94 317.7C348.553 317.367 348.133 317.047 347.68 316.74C347.227 316.42 346.773 316.133 346.32 315.88ZM351 318.52L352.22 318.02C352.58 318.513 352.913 319.047 353.22 319.62C353.54 320.18 353.807 320.74 354.02 321.3C354.247 321.86 354.407 322.367 354.5 322.82L353.16 323.36C353.08 322.907 352.933 322.4 352.72 321.84C352.507 321.28 352.247 320.713 351.94 320.14C351.647 319.553 351.333 319.013 351 318.52ZM343.9 307.06H352.76V308.34H343.9V307.06ZM336.66 312.26H342.34V313.44H336.66V312.26ZM336.74 306.9H342.28V308.1H336.74V306.9ZM336.66 314.92H342.34V316.12H336.66V314.92ZM335.76 309.52H342.92V310.78H335.76V309.52ZM337.34 317.62H342.36V323.46H337.34V322.22H341.06V318.88H337.34V317.62ZM336.64 317.62H337.92V324.38H336.64V317.62ZM363.72 307.42H373.94V308.86H363.72V307.42ZM363.04 322.48H374.28V323.9H363.04V322.48ZM369.22 314.36H373.82V315.8H369.22V314.36ZM368.38 307.98H369.86V323.3H368.38V307.98ZM364.56 312.44H365.98V323.14H364.56V312.44ZM356.72 312.36H362.36V313.56H356.72V312.36ZM356.84 306.9H362.34V308.1H356.84V306.9ZM356.72 315.1H362.36V316.28H356.72V315.1ZM355.76 309.58H363.04V310.82H355.76V309.58ZM357.42 317.84H362.44V323.66H357.42V322.44H361.1V319.08H357.42V317.84ZM356.68 317.84H358V324.58H356.68V317.84Z" fill="black"/>
<path d="M146 250.22H155.52V251.62H146V250.22ZM156.86 246.58H158.32V257.62H156.86V246.58ZM150.18 245.88H151.66V262.56H150.18V245.88ZM161.76 244.58H163.26V260.6C163.26 261.12 163.187 261.507 163.04 261.76C162.907 262.013 162.68 262.207 162.36 262.34C162.027 262.46 161.567 262.533 160.98 262.56C160.407 262.6 159.66 262.62 158.74 262.62C158.713 262.473 158.667 262.307 158.6 262.12C158.533 261.947 158.467 261.767 158.4 261.58C158.333 261.393 158.26 261.233 158.18 261.1C158.887 261.113 159.527 261.12 160.1 261.12C160.673 261.12 161.053 261.12 161.24 261.12C161.427 261.107 161.56 261.067 161.64 261C161.72 260.92 161.76 260.787 161.76 260.6V244.58ZM154.16 244.32L155.28 245.46C154.52 245.767 153.633 246.047 152.62 246.3C151.607 246.553 150.553 246.773 149.46 246.96C148.38 247.147 147.333 247.307 146.32 247.44C146.28 247.267 146.213 247.067 146.12 246.84C146.04 246.613 145.947 246.42 145.84 246.26C146.587 246.153 147.347 246.033 148.12 245.9C148.907 245.753 149.667 245.6 150.4 245.44C151.147 245.267 151.84 245.087 152.48 244.9C153.133 244.713 153.693 244.52 154.16 244.32ZM150.14 250.86L151.2 251.32C150.947 252.08 150.64 252.86 150.28 253.66C149.92 254.46 149.527 255.24 149.1 256C148.673 256.76 148.227 257.473 147.76 258.14C147.293 258.793 146.827 259.353 146.36 259.82C146.307 259.673 146.227 259.52 146.12 259.36C146.027 259.187 145.927 259.013 145.82 258.84C145.727 258.667 145.633 258.52 145.54 258.4C145.993 257.987 146.44 257.493 146.88 256.92C147.333 256.333 147.767 255.7 148.18 255.02C148.593 254.34 148.967 253.647 149.3 252.94C149.647 252.22 149.927 251.527 150.14 250.86ZM151.46 252.94C151.66 253.073 151.94 253.293 152.3 253.6C152.673 253.907 153.073 254.24 153.5 254.6C153.927 254.96 154.313 255.293 154.66 255.6C155.02 255.907 155.28 256.133 155.44 256.28L154.58 257.54C154.38 257.313 154.107 257.027 153.76 256.68C153.413 256.32 153.047 255.953 152.66 255.58C152.273 255.207 151.9 254.853 151.54 254.52C151.18 254.187 150.88 253.927 150.64 253.74L151.46 252.94ZM168.92 245.6H181.86V247.04H168.92V245.6ZM168.92 250.26H181.82V251.68H168.92V250.26ZM168.8 255.04H181.86V256.46H168.8V255.04ZM168.06 245.6H169.54V252.86C169.54 253.62 169.507 254.433 169.44 255.3C169.373 256.167 169.247 257.047 169.06 257.94C168.887 258.82 168.613 259.667 168.24 260.48C167.88 261.293 167.4 262.033 166.8 262.7C166.733 262.593 166.627 262.473 166.48 262.34C166.333 262.22 166.187 262.1 166.04 261.98C165.893 261.86 165.76 261.773 165.64 261.72C166.2 261.093 166.64 260.413 166.96 259.68C167.28 258.947 167.52 258.193 167.68 257.42C167.84 256.633 167.94 255.853 167.98 255.08C168.033 254.307 168.06 253.567 168.06 252.86V245.6ZM181.26 245.6H182.74V260.56C182.74 261.04 182.667 261.407 182.52 261.66C182.387 261.913 182.153 262.107 181.82 262.24C181.487 262.36 181.02 262.433 180.42 262.46C179.82 262.487 179.047 262.493 178.1 262.48C178.06 262.293 177.987 262.053 177.88 261.76C177.787 261.48 177.687 261.24 177.58 261.04C178.047 261.053 178.493 261.06 178.92 261.06C179.36 261.073 179.74 261.073 180.06 261.06C180.38 261.06 180.6 261.06 180.72 261.06C180.92 261.047 181.06 261.007 181.14 260.94C181.22 260.873 181.26 260.747 181.26 260.56V245.6ZM174.34 246.14H175.86V262.42H174.34V246.14Z" fill="black"/>
<path d="M445.06 308.38C445.353 308.407 445.647 308.433 445.94 308.46C446.247 308.487 446.56 308.5 446.88 308.5C447.107 308.5 447.453 308.5 447.92 308.5C448.387 308.5 448.907 308.5 449.48 308.5C450.067 308.5 450.647 308.5 451.22 308.5C451.793 308.5 452.307 308.5 452.76 308.5C453.227 308.5 453.573 308.5 453.8 308.5C454.08 308.5 454.387 308.493 454.72 308.48C455.067 308.453 455.38 308.42 455.66 308.38V310.04C455.367 310.013 455.053 310 454.72 310C454.4 309.987 454.093 309.98 453.8 309.98C453.573 309.98 453.227 309.98 452.76 309.98C452.307 309.98 451.793 309.98 451.22 309.98C450.647 309.98 450.073 309.98 449.5 309.98C448.927 309.98 448.407 309.98 447.94 309.98C447.473 309.98 447.127 309.98 446.9 309.98C446.567 309.98 446.24 309.987 445.92 310C445.613 310 445.327 310.013 445.06 310.04V308.38ZM442.7 313.4C442.967 313.427 443.24 313.453 443.52 313.48C443.813 313.493 444.113 313.5 444.42 313.5C444.593 313.5 444.933 313.5 445.44 313.5C445.96 313.5 446.587 313.5 447.32 313.5C448.067 313.5 448.867 313.5 449.72 313.5C450.573 313.5 451.427 313.5 452.28 313.5C453.133 313.5 453.927 313.5 454.66 313.5C455.407 313.5 456.033 313.5 456.54 313.5C457.047 313.5 457.373 313.5 457.52 313.5C457.733 313.5 457.987 313.493 458.28 313.48C458.573 313.467 458.84 313.44 459.08 313.4V315.06C458.867 315.047 458.613 315.04 458.32 315.04C458.04 315.027 457.773 315.02 457.52 315.02C457.373 315.02 457.047 315.02 456.54 315.02C456.033 315.02 455.407 315.02 454.66 315.02C453.927 315.02 453.133 315.02 452.28 315.02C451.427 315.02 450.573 315.02 449.72 315.02C448.867 315.02 448.067 315.02 447.32 315.02C446.587 315.02 445.96 315.02 445.44 315.02C444.933 315.02 444.593 315.02 444.42 315.02C444.127 315.02 443.833 315.02 443.54 315.02C443.247 315.02 442.967 315.033 442.7 315.06V313.4ZM452.1 314.22C452.1 315.473 452.007 316.627 451.82 317.68C451.647 318.72 451.34 319.66 450.9 320.5C450.66 320.94 450.333 321.387 449.92 321.84C449.52 322.28 449.067 322.7 448.56 323.1C448.067 323.5 447.533 323.847 446.96 324.14L445.48 323.04C446.253 322.72 446.98 322.287 447.66 321.74C448.34 321.193 448.873 320.607 449.26 319.98C449.767 319.18 450.087 318.3 450.22 317.34C450.353 316.367 450.42 315.327 450.42 314.22H452.1ZM456.7 306.76C456.873 306.987 457.06 307.267 457.26 307.6C457.46 307.92 457.653 308.247 457.84 308.58C458.04 308.913 458.207 309.22 458.34 309.5L457.26 309.98C457.06 309.567 456.807 309.1 456.5 308.58C456.193 308.047 455.907 307.587 455.64 307.2L456.7 306.76ZM458.9 305.96C459.073 306.2 459.267 306.487 459.48 306.82C459.693 307.153 459.9 307.487 460.1 307.82C460.3 308.14 460.46 308.427 460.58 308.68L459.5 309.16C459.287 308.72 459.027 308.247 458.72 307.74C458.427 307.22 458.133 306.773 457.84 306.4L458.9 305.96ZM463.04 314.34C463.24 314.353 463.487 314.373 463.78 314.4C464.073 314.413 464.393 314.427 464.74 314.44C465.1 314.44 465.46 314.44 465.82 314.44C466.033 314.44 466.36 314.44 466.8 314.44C467.253 314.44 467.78 314.44 468.38 314.44C468.98 314.44 469.613 314.44 470.28 314.44C470.96 314.44 471.633 314.44 472.3 314.44C472.98 314.44 473.62 314.44 474.22 314.44C474.833 314.44 475.36 314.44 475.8 314.44C476.24 314.44 476.567 314.44 476.78 314.44C477.287 314.44 477.72 314.427 478.08 314.4C478.44 314.373 478.727 314.353 478.94 314.34V316.3C478.74 316.287 478.44 316.267 478.04 316.24C477.653 316.213 477.24 316.2 476.8 316.2C476.587 316.2 476.253 316.2 475.8 316.2C475.347 316.2 474.82 316.2 474.22 316.2C473.633 316.2 473 316.2 472.32 316.2C471.64 316.2 470.96 316.2 470.28 316.2C469.613 316.2 468.98 316.2 468.38 316.2C467.793 316.2 467.273 316.2 466.82 316.2C466.367 316.2 466.033 316.2 465.82 316.2C465.273 316.2 464.753 316.213 464.26 316.24C463.767 316.253 463.36 316.273 463.04 316.3V314.34ZM489.3 313.84C489.94 314.213 490.613 314.627 491.32 315.08C492.027 315.533 492.727 316.007 493.42 316.5C494.127 316.98 494.8 317.453 495.44 317.92C496.08 318.387 496.647 318.827 497.14 319.24L495.96 320.62C495.507 320.207 494.96 319.753 494.32 319.26C493.693 318.753 493.027 318.247 492.32 317.74C491.613 317.22 490.907 316.72 490.2 316.24C489.493 315.76 488.833 315.327 488.22 314.94L489.3 313.84ZM498.46 310.18C498.367 310.327 498.28 310.507 498.2 310.72C498.12 310.92 498.047 311.1 497.98 311.26C497.793 311.94 497.527 312.673 497.18 313.46C496.833 314.247 496.427 315.04 495.96 315.84C495.493 316.627 494.96 317.387 494.36 318.12C493.467 319.227 492.347 320.293 491 321.32C489.667 322.333 488.053 323.187 486.16 323.88L484.72 322.64C485.96 322.253 487.087 321.78 488.1 321.22C489.127 320.647 490.047 320.02 490.86 319.34C491.673 318.66 492.38 317.96 492.98 317.24C493.5 316.627 493.973 315.953 494.4 315.22C494.84 314.487 495.22 313.76 495.54 313.04C495.86 312.307 496.093 311.627 496.24 311H488.82L489.46 309.58H495.82C496.087 309.58 496.333 309.567 496.56 309.54C496.787 309.5 496.98 309.447 497.14 309.38L498.46 310.18ZM491.72 307.3C491.547 307.567 491.38 307.847 491.22 308.14C491.06 308.433 490.927 308.673 490.82 308.86C490.42 309.593 489.9 310.4 489.26 311.28C488.633 312.147 487.893 313.013 487.04 313.88C486.2 314.747 485.247 315.553 484.18 316.3L482.84 315.26C483.987 314.553 484.98 313.773 485.82 312.92C486.66 312.067 487.367 311.233 487.94 310.42C488.513 309.607 488.953 308.9 489.26 308.3C489.367 308.127 489.487 307.887 489.62 307.58C489.753 307.26 489.847 306.973 489.9 306.72L491.72 307.3Z" fill="black"/>
<path d="M624.06 194.38C624.353 194.407 624.647 194.433 624.94 194.46C625.247 194.487 625.56 194.5 625.88 194.5C626.107 194.5 626.453 194.5 626.92 194.5C627.387 194.5 627.907 194.5 628.48 194.5C629.067 194.5 629.647 194.5 630.22 194.5C630.793 194.5 631.307 194.5 631.76 194.5C632.227 194.5 632.573 194.5 632.8 194.5C633.08 194.5 633.387 194.493 633.72 194.48C634.067 194.453 634.38 194.42 634.66 194.38V196.04C634.367 196.013 634.053 196 633.72 196C633.4 195.987 633.093 195.98 632.8 195.98C632.573 195.98 632.227 195.98 631.76 195.98C631.307 195.98 630.793 195.98 630.22 195.98C629.647 195.98 629.073 195.98 628.5 195.98C627.927 195.98 627.407 195.98 626.94 195.98C626.473 195.98 626.127 195.98 625.9 195.98C625.567 195.98 625.24 195.987 624.92 196C624.613 196 624.327 196.013 624.06 196.04V194.38ZM621.7 199.4C621.967 199.427 622.24 199.453 622.52 199.48C622.813 199.493 623.113 199.5 623.42 199.5C623.593 199.5 623.933 199.5 624.44 199.5C624.96 199.5 625.587 199.5 626.32 199.5C627.067 199.5 627.867 199.5 628.72 199.5C629.573 199.5 630.427 199.5 631.28 199.5C632.133 199.5 632.927 199.5 633.66 199.5C634.407 199.5 635.033 199.5 635.54 199.5C636.047 199.5 636.373 199.5 636.52 199.5C636.733 199.5 636.987 199.493 637.28 199.48C637.573 199.467 637.84 199.44 638.08 199.4V201.06C637.867 201.047 637.613 201.04 637.32 201.04C637.04 201.027 636.773 201.02 636.52 201.02C636.373 201.02 636.047 201.02 635.54 201.02C635.033 201.02 634.407 201.02 633.66 201.02C632.927 201.02 632.133 201.02 631.28 201.02C630.427 201.02 629.573 201.02 628.72 201.02C627.867 201.02 627.067 201.02 626.32 201.02C625.587 201.02 624.96 201.02 624.44 201.02C623.933 201.02 623.593 201.02 623.42 201.02C623.127 201.02 622.833 201.02 622.54 201.02C622.247 201.02 621.967 201.033 621.7 201.06V199.4ZM631.1 200.22C631.1 201.473 631.007 202.627 630.82 203.68C630.647 204.72 630.34 205.66 629.9 206.5C629.66 206.94 629.333 207.387 628.92 207.84C628.52 208.28 628.067 208.7 627.56 209.1C627.067 209.5 626.533 209.847 625.96 210.14L624.48 209.04C625.253 208.72 625.98 208.287 626.66 207.74C627.34 207.193 627.873 206.607 628.26 205.98C628.767 205.18 629.087 204.3 629.22 203.34C629.353 202.367 629.42 201.327 629.42 200.22H631.1ZM635.7 192.76C635.873 192.987 636.06 193.267 636.26 193.6C636.46 193.92 636.653 194.247 636.84 194.58C637.04 194.913 637.207 195.22 637.34 195.5L636.26 195.98C636.06 195.567 635.807 195.1 635.5 194.58C635.193 194.047 634.907 193.587 634.64 193.2L635.7 192.76ZM637.9 191.96C638.073 192.2 638.267 192.487 638.48 192.82C638.693 193.153 638.9 193.487 639.1 193.82C639.3 194.14 639.46 194.427 639.58 194.68L638.5 195.16C638.287 194.72 638.027 194.247 637.72 193.74C637.427 193.22 637.133 192.773 636.84 192.4L637.9 191.96ZM656.1 194.64C656.1 195 656.227 195.313 656.48 195.58C656.747 195.833 657.06 195.96 657.42 195.96C657.793 195.96 658.107 195.833 658.36 195.58C658.627 195.313 658.76 195 658.76 194.64C658.76 194.267 658.627 193.953 658.36 193.7C658.107 193.433 657.793 193.3 657.42 193.3C657.06 193.3 656.747 193.433 656.48 193.7C656.227 193.953 656.1 194.267 656.1 194.64ZM655.18 194.64C655.18 194.227 655.28 193.853 655.48 193.52C655.693 193.173 655.967 192.9 656.3 192.7C656.633 192.487 657.007 192.38 657.42 192.38C657.833 192.38 658.207 192.487 658.54 192.7C658.887 192.9 659.16 193.173 659.36 193.52C659.573 193.853 659.68 194.227 659.68 194.64C659.68 195.053 659.573 195.427 659.36 195.76C659.16 196.093 658.887 196.367 658.54 196.58C658.207 196.78 657.833 196.88 657.42 196.88C657.007 196.88 656.633 196.78 656.3 196.58C655.967 196.367 655.693 196.093 655.48 195.76C655.28 195.427 655.18 195.053 655.18 194.64ZM656.92 195.98C656.853 196.113 656.793 196.267 656.74 196.44C656.7 196.6 656.66 196.78 656.62 196.98C656.513 197.5 656.373 198.08 656.2 198.72C656.027 199.36 655.813 200.02 655.56 200.7C655.32 201.367 655.04 202.013 654.72 202.64C654.4 203.267 654.04 203.84 653.64 204.36C653.027 205.133 652.347 205.853 651.6 206.52C650.853 207.187 650 207.787 649.04 208.32C648.08 208.853 646.987 209.313 645.76 209.7L644.4 208.2C645.707 207.88 646.833 207.48 647.78 207C648.74 206.52 649.58 205.98 650.3 205.38C651.02 204.767 651.653 204.107 652.2 203.4C652.68 202.787 653.093 202.1 653.44 201.34C653.8 200.567 654.1 199.793 654.34 199.02C654.58 198.233 654.74 197.52 654.82 196.88C654.633 196.88 654.28 196.88 653.76 196.88C653.24 196.88 652.627 196.88 651.92 196.88C651.213 196.88 650.473 196.88 649.7 196.88C648.94 196.88 648.207 196.88 647.5 196.88C646.793 196.88 646.18 196.88 645.66 196.88C645.14 196.88 644.787 196.88 644.6 196.88C644.2 196.88 643.833 196.887 643.5 196.9C643.167 196.913 642.867 196.927 642.6 196.94V195.16C642.787 195.187 642.993 195.213 643.22 195.24C643.447 195.253 643.68 195.267 643.92 195.28C644.16 195.293 644.387 195.3 644.6 195.3C644.76 195.3 645.047 195.3 645.46 195.3C645.873 195.3 646.36 195.3 646.92 195.3C647.493 195.3 648.1 195.3 648.74 195.3C649.393 195.3 650.033 195.3 650.66 195.3C651.3 195.3 651.893 195.3 652.44 195.3C653 195.3 653.473 195.3 653.86 195.3C654.247 195.3 654.507 195.3 654.64 195.3C654.787 195.3 654.953 195.293 655.14 195.28C655.327 195.267 655.513 195.24 655.7 195.2L656.92 195.98ZM662.92 195.3C663.32 195.313 663.66 195.327 663.94 195.34C664.22 195.34 664.473 195.34 664.7 195.34C664.86 195.34 665.153 195.34 665.58 195.34C666.007 195.34 666.52 195.34 667.12 195.34C667.733 195.34 668.387 195.34 669.08 195.34C669.773 195.34 670.46 195.34 671.14 195.34C671.833 195.34 672.48 195.34 673.08 195.34C673.68 195.34 674.187 195.34 674.6 195.34C675.013 195.34 675.293 195.34 675.44 195.34C675.653 195.34 675.92 195.34 676.24 195.34C676.573 195.327 676.893 195.313 677.2 195.3C677.187 195.54 677.173 195.8 677.16 196.08C677.16 196.347 677.16 196.607 677.16 196.86C677.16 196.993 677.16 197.26 677.16 197.66C677.16 198.047 677.16 198.52 677.16 199.08C677.16 199.64 677.16 200.247 677.16 200.9C677.16 201.54 677.16 202.18 677.16 202.82C677.16 203.46 677.16 204.053 677.16 204.6C677.16 205.147 677.16 205.613 677.16 206C677.16 206.373 677.16 206.613 677.16 206.72C677.16 206.867 677.16 207.067 677.16 207.32C677.16 207.573 677.16 207.827 677.16 208.08C677.173 208.333 677.18 208.56 677.18 208.76C677.193 208.947 677.2 209.073 677.2 209.14H675.48C675.48 209.06 675.48 208.9 675.48 208.66C675.493 208.407 675.5 208.127 675.5 207.82C675.513 207.5 675.52 207.2 675.52 206.92C675.52 206.827 675.52 206.573 675.52 206.16C675.52 205.747 675.52 205.24 675.52 204.64C675.52 204.027 675.52 203.373 675.52 202.68C675.52 201.973 675.52 201.287 675.52 200.62C675.52 199.94 675.52 199.32 675.52 198.76C675.52 198.2 675.52 197.753 675.52 197.42C675.52 197.087 675.52 196.92 675.52 196.92H664.58C664.58 196.92 664.58 197.087 664.58 197.42C664.58 197.74 664.58 198.18 664.58 198.74C664.58 199.3 664.58 199.92 664.58 200.6C664.58 201.267 664.58 201.947 664.58 202.64C664.58 203.333 664.58 203.987 664.58 204.6C664.58 205.2 664.58 205.707 664.58 206.12C664.58 206.533 664.58 206.8 664.58 206.92C664.58 207.093 664.58 207.293 664.58 207.52C664.58 207.747 664.58 207.973 664.58 208.2C664.593 208.413 664.6 208.607 664.6 208.78C664.613 208.953 664.62 209.073 664.62 209.14H662.9C662.9 209.073 662.9 208.947 662.9 208.76C662.913 208.56 662.92 208.333 662.92 208.08C662.933 207.827 662.94 207.58 662.94 207.34C662.94 207.087 662.94 206.873 662.94 206.7C662.94 206.593 662.94 206.347 662.94 205.96C662.94 205.573 662.94 205.1 662.94 204.54C662.94 203.98 662.94 203.38 662.94 202.74C662.94 202.087 662.94 201.44 662.94 200.8C662.94 200.147 662.94 199.547 662.94 199C662.94 198.44 662.94 197.973 662.94 197.6C662.94 197.213 662.94 196.967 662.94 196.86C662.94 196.62 662.94 196.36 662.94 196.08C662.94 195.8 662.933 195.54 662.92 195.3ZM676.16 206.42V207.98H663.8V206.42H676.16ZM681.72 201.78C683.453 201.313 685.067 200.747 686.56 200.08C688.053 199.413 689.353 198.733 690.46 198.04C691.153 197.6 691.827 197.127 692.48 196.62C693.147 196.1 693.773 195.56 694.36 195C694.947 194.44 695.467 193.887 695.92 193.34L697.26 194.58C696.7 195.18 696.093 195.767 695.44 196.34C694.787 196.913 694.093 197.467 693.36 198C692.64 198.52 691.887 199.027 691.1 199.52C690.367 199.96 689.54 200.413 688.62 200.88C687.7 201.347 686.72 201.787 685.68 202.2C684.64 202.613 683.587 202.993 682.52 203.34L681.72 201.78ZM690.14 198.88L691.86 198.36V207.48C691.86 207.733 691.86 208 691.86 208.28C691.873 208.56 691.887 208.82 691.9 209.06C691.927 209.3 691.953 209.487 691.98 209.62H690.02C690.033 209.487 690.047 209.3 690.06 209.06C690.087 208.82 690.107 208.56 690.12 208.28C690.133 208 690.14 207.733 690.14 207.48V198.88Z" fill="black"/>
<path d="M521.1 87.64C521.1 88 521.227 88.3133 521.48 88.58C521.747 88.8333 522.06 88.96 522.42 88.96C522.793 88.96 523.107 88.8333 523.36 88.58C523.627 88.3133 523.76 88 523.76 87.64C523.76 87.2667 523.627 86.9533 523.36 86.7C523.107 86.4333 522.793 86.3 522.42 86.3C522.06 86.3 521.747 86.4333 521.48 86.7C521.227 86.9533 521.1 87.2667 521.1 87.64ZM520.18 87.64C520.18 87.2267 520.28 86.8533 520.48 86.52C520.693 86.1733 520.967 85.9 521.3 85.7C521.633 85.4867 522.007 85.38 522.42 85.38C522.833 85.38 523.207 85.4867 523.54 85.7C523.887 85.9 524.16 86.1733 524.36 86.52C524.573 86.8533 524.68 87.2267 524.68 87.64C524.68 88.0533 524.573 88.4267 524.36 88.76C524.16 89.0933 523.887 89.3667 523.54 89.58C523.207 89.78 522.833 89.88 522.42 89.88C522.007 89.88 521.633 89.78 521.3 89.58C520.967 89.3667 520.693 89.0933 520.48 88.76C520.28 88.4267 520.18 88.0533 520.18 87.64ZM521.92 88.98C521.853 89.1133 521.793 89.2667 521.74 89.44C521.7 89.6 521.66 89.78 521.62 89.98C521.513 90.5 521.373 91.08 521.2 91.72C521.027 92.36 520.813 93.02 520.56 93.7C520.32 94.3667 520.04 95.0133 519.72 95.64C519.4 96.2667 519.04 96.84 518.64 97.36C518.027 98.1333 517.347 98.8533 516.6 99.52C515.853 100.187 515 100.787 514.04 101.32C513.08 101.853 511.987 102.313 510.76 102.7L509.4 101.2C510.707 100.88 511.833 100.48 512.78 100C513.74 99.52 514.58 98.98 515.3 98.38C516.02 97.7667 516.653 97.1067 517.2 96.4C517.68 95.7867 518.093 95.1 518.44 94.34C518.8 93.5667 519.1 92.7933 519.34 92.02C519.58 91.2333 519.74 90.52 519.82 89.88C519.633 89.88 519.28 89.88 518.76 89.88C518.24 89.88 517.627 89.88 516.92 89.88C516.213 89.88 515.473 89.88 514.7 89.88C513.94 89.88 513.207 89.88 512.5 89.88C511.793 89.88 511.18 89.88 510.66 89.88C510.14 89.88 509.787 89.88 509.6 89.88C509.2 89.88 508.833 89.8867 508.5 89.9C508.167 89.9133 507.867 89.9267 507.6 89.94V88.16C507.787 88.1867 507.993 88.2133 508.22 88.24C508.447 88.2533 508.68 88.2667 508.92 88.28C509.16 88.2933 509.387 88.3 509.6 88.3C509.76 88.3 510.047 88.3 510.46 88.3C510.873 88.3 511.36 88.3 511.92 88.3C512.493 88.3 513.1 88.3 513.74 88.3C514.393 88.3 515.033 88.3 515.66 88.3C516.3 88.3 516.893 88.3 517.44 88.3C518 88.3 518.473 88.3 518.86 88.3C519.247 88.3 519.507 88.3 519.64 88.3C519.787 88.3 519.953 88.2933 520.14 88.28C520.327 88.2667 520.513 88.24 520.7 88.2L521.92 88.98ZM535.48 101.58C535.52 101.42 535.547 101.247 535.56 101.06C535.587 100.86 535.6 100.66 535.6 100.46C535.6 100.327 535.6 100.033 535.6 99.58C535.6 99.1267 535.6 98.5733 535.6 97.92C535.6 97.2533 535.6 96.5333 535.6 95.76C535.6 94.9867 535.6 94.2133 535.6 93.44C535.6 92.6533 535.6 91.92 535.6 91.24C535.6 90.56 535.6 89.9733 535.6 89.48C535.6 88.9867 535.6 88.6533 535.6 88.48C535.6 88.0933 535.587 87.7733 535.56 87.52C535.533 87.2533 535.513 87.08 535.5 87H537.34C537.34 87.08 537.327 87.2533 537.3 87.52C537.273 87.7867 537.26 88.1067 537.26 88.48C537.26 88.6667 537.26 89 537.26 89.48C537.26 89.9467 537.26 90.52 537.26 91.2C537.26 91.8667 537.26 92.5867 537.26 93.36C537.26 94.12 537.26 94.8733 537.26 95.62C537.26 96.3667 537.26 97.06 537.26 97.7C537.26 98.3267 537.26 98.8467 537.26 99.26C537.26 99.6733 537.26 99.9267 537.26 100.02C537.887 99.7267 538.553 99.34 539.26 98.86C539.967 98.38 540.653 97.82 541.32 97.18C542 96.54 542.593 95.8467 543.1 95.1L544.04 96.46C543.467 97.2333 542.793 97.9733 542.02 98.68C541.26 99.3867 540.467 100.02 539.64 100.58C538.813 101.14 538.007 101.613 537.22 102C537.06 102.093 536.92 102.18 536.8 102.26C536.693 102.34 536.607 102.407 536.54 102.46L535.48 101.58ZM526.32 101.48C527.16 100.88 527.873 100.153 528.46 99.3C529.047 98.4467 529.493 97.5333 529.8 96.56C529.947 96.1067 530.06 95.54 530.14 94.86C530.22 94.18 530.28 93.46 530.32 92.7C530.36 91.9267 530.38 91.18 530.38 90.46C530.393 89.7267 530.4 89.08 530.4 88.52C530.4 88.2267 530.387 87.9667 530.36 87.74C530.333 87.5 530.3 87.2733 530.26 87.06H532.1C532.087 87.14 532.073 87.26 532.06 87.42C532.047 87.5667 532.033 87.7333 532.02 87.92C532.007 88.1067 532 88.3 532 88.5C532 89.06 531.993 89.72 531.98 90.48C531.967 91.2267 531.933 92.0133 531.88 92.84C531.84 93.6533 531.78 94.4267 531.7 95.16C531.633 95.8933 531.527 96.5067 531.38 97C531.087 98.0667 530.627 99.0733 530 100.02C529.387 100.967 528.66 101.793 527.82 102.5L526.32 101.48ZM560.52 86.82C560.507 87.0733 560.493 87.3467 560.48 87.64C560.467 87.92 560.46 88.2267 560.46 88.56C560.46 88.8267 560.46 89.1667 560.46 89.58C560.46 89.9933 560.46 90.4067 560.46 90.82C560.46 91.22 560.46 91.5467 560.46 91.8C560.46 93 560.413 94.02 560.32 94.86C560.24 95.7 560.113 96.42 559.94 97.02C559.78 97.6067 559.567 98.1267 559.3 98.58C559.033 99.0333 558.72 99.4733 558.36 99.9C557.933 100.407 557.44 100.853 556.88 101.24C556.333 101.613 555.773 101.927 555.2 102.18C554.627 102.447 554.093 102.66 553.6 102.82L552.3 101.44C553.22 101.213 554.087 100.893 554.9 100.48C555.727 100.053 556.453 99.4867 557.08 98.78C557.44 98.3667 557.727 97.9467 557.94 97.52C558.167 97.08 558.333 96.5933 558.44 96.06C558.56 95.5267 558.64 94.9067 558.68 94.2C558.72 93.4933 558.74 92.6667 558.74 91.72C558.74 91.4533 558.74 91.12 558.74 90.72C558.74 90.32 558.74 89.92 558.74 89.52C558.74 89.1067 558.74 88.7867 558.74 88.56C558.74 88.2267 558.727 87.92 558.7 87.64C558.687 87.3467 558.667 87.0733 558.64 86.82H560.52ZM551.24 86.98C551.227 87.1667 551.207 87.3933 551.18 87.66C551.167 87.9267 551.16 88.18 551.16 88.42C551.16 88.5133 551.16 88.7267 551.16 89.06C551.16 89.38 551.16 89.7667 551.16 90.22C551.16 90.6733 551.16 91.1533 551.16 91.66C551.16 92.1667 551.16 92.66 551.16 93.14C551.16 93.6067 551.16 94.0133 551.16 94.36C551.16 94.7067 551.16 94.9533 551.16 95.1C551.16 95.3533 551.167 95.6267 551.18 95.92C551.207 96.2 551.227 96.4333 551.24 96.62H549.4C549.427 96.46 549.447 96.24 549.46 95.96C549.487 95.6667 549.5 95.3733 549.5 95.08C549.5 94.9467 549.5 94.7067 549.5 94.36C549.5 94 549.5 93.5867 549.5 93.12C549.5 92.6533 549.5 92.1667 549.5 91.66C549.5 91.1533 549.5 90.6733 549.5 90.22C549.5 89.7667 549.5 89.38 549.5 89.06C549.5 88.7267 549.5 88.5133 549.5 88.42C549.5 88.2467 549.493 88.0133 549.48 87.72C549.467 87.4133 549.447 87.1667 549.42 86.98H551.24ZM582.44 89.5C582.347 89.6333 582.26 89.8067 582.18 90.02C582.1 90.22 582.033 90.4 581.98 90.56C581.807 91.2267 581.553 91.96 581.22 92.76C580.887 93.5467 580.487 94.3467 580.02 95.16C579.553 95.96 579.02 96.72 578.42 97.44C577.513 98.5467 576.427 99.56 575.16 100.48C573.907 101.387 572.34 102.187 570.46 102.88L569.02 101.58C570.247 101.22 571.347 100.787 572.32 100.28C573.293 99.76 574.167 99.1867 574.94 98.56C575.713 97.9333 576.4 97.2667 577 96.56C577.52 95.9467 577.993 95.2733 578.42 94.54C578.86 93.8067 579.233 93.0733 579.54 92.34C579.847 91.5933 580.067 90.92 580.2 90.32H572.78L573.42 88.88C573.58 88.88 573.88 88.88 574.32 88.88C574.76 88.88 575.26 88.88 575.82 88.88C576.393 88.88 576.96 88.88 577.52 88.88C578.08 88.88 578.567 88.88 578.98 88.88C579.407 88.88 579.68 88.88 579.8 88.88C580.067 88.88 580.313 88.8667 580.54 88.84C580.767 88.8 580.953 88.7467 581.1 88.68L582.44 89.5ZM575.74 86.46C575.567 86.7267 575.4 87.0133 575.24 87.32C575.08 87.6133 574.953 87.8533 574.86 88.04C574.46 88.7733 573.96 89.5667 573.36 90.42C572.76 91.26 572.047 92.0933 571.22 92.92C570.393 93.7467 569.44 94.52 568.36 95.24L566.98 94.2C567.847 93.6933 568.62 93.14 569.3 92.54C569.98 91.94 570.573 91.3333 571.08 90.72C571.6 90.1067 572.04 89.52 572.4 88.96C572.76 88.4 573.047 87.8933 573.26 87.44C573.367 87.2667 573.48 87.0267 573.6 86.72C573.733 86.4 573.827 86.1133 573.88 85.86L575.74 86.46ZM587.9 88.62C588.167 88.66 588.46 88.6933 588.78 88.72C589.113 88.7333 589.38 88.74 589.58 88.74H600.58C600.887 88.74 601.187 88.7267 601.48 88.7C601.773 88.6733 602.04 88.6467 602.28 88.62V90.38C602.027 90.3533 601.747 90.3333 601.44 90.32C601.147 90.3067 600.86 90.3 600.58 90.3H589.58C589.393 90.3 589.127 90.3067 588.78 90.32C588.447 90.3333 588.153 90.3533 587.9 90.38V88.62ZM594.08 100.36V89.62H595.78V100.36H594.08ZM586.68 99.38C586.973 99.42 587.267 99.4533 587.56 99.48C587.867 99.4933 588.16 99.5 588.44 99.5H601.66C601.967 99.5 602.253 99.4867 602.52 99.46C602.8 99.4333 603.067 99.4067 603.32 99.38V101.2C603.053 101.173 602.76 101.153 602.44 101.14C602.12 101.127 601.86 101.12 601.66 101.12H588.44C588.173 101.12 587.887 101.127 587.58 101.14C587.287 101.153 586.987 101.173 586.68 101.2V99.38ZM621 88.62C620.933 88.7 620.847 88.8333 620.74 89.02C620.647 89.1933 620.567 89.3533 620.5 89.5C620.247 90.1533 619.913 90.88 619.5 91.68C619.087 92.4667 618.627 93.2467 618.12 94.02C617.613 94.7933 617.08 95.4933 616.52 96.12C615.787 96.9467 614.98 97.7533 614.1 98.54C613.22 99.3133 612.293 100.04 611.32 100.72C610.347 101.387 609.333 101.96 608.28 102.44L607 101.1C608.08 100.673 609.113 100.147 610.1 99.52C611.1 98.88 612.033 98.1867 612.9 97.44C613.78 96.68 614.56 95.92 615.24 95.16C615.693 94.64 616.14 94.06 616.58 93.42C617.033 92.7667 617.433 92.1067 617.78 91.44C618.14 90.76 618.4 90.1467 618.56 89.6C618.453 89.6 618.2 89.6 617.8 89.6C617.4 89.6 616.927 89.6 616.38 89.6C615.833 89.6 615.26 89.6 614.66 89.6C614.06 89.6 613.487 89.6 612.94 89.6C612.393 89.6 611.92 89.6 611.52 89.6C611.133 89.6 610.88 89.6 610.76 89.6C610.533 89.6 610.273 89.6067 609.98 89.62C609.7 89.6333 609.44 89.6467 609.2 89.66C608.973 89.6733 608.82 89.6867 608.74 89.7V87.88C608.833 87.8933 609 87.9133 609.24 87.94C609.493 87.9533 609.76 87.9667 610.04 87.98C610.32 87.9933 610.56 88 610.76 88C610.907 88 611.173 88 611.56 88C611.947 88 612.407 88 612.94 88C613.487 88 614.053 88 614.64 88C615.227 88 615.787 88 616.32 88C616.867 88 617.333 88 617.72 88C618.107 88 618.36 88 618.48 88C618.813 88 619.107 87.9867 619.36 87.96C619.627 87.9333 619.833 87.8933 619.98 87.84L621 88.62ZM616.78 95.06C617.327 95.5133 617.887 96.0133 618.46 96.56C619.047 97.1067 619.62 97.6733 620.18 98.26C620.74 98.8333 621.26 99.3867 621.74 99.92C622.22 100.44 622.633 100.913 622.98 101.34L621.58 102.54C621.113 101.9 620.553 101.213 619.9 100.48C619.247 99.7333 618.553 98.9933 617.82 98.26C617.1 97.5133 616.373 96.8267 615.64 96.2L616.78 95.06ZM631.74 100.24C631.74 100.053 631.74 99.68 631.74 99.12C631.74 98.5467 631.74 97.8733 631.74 97.1C631.74 96.3133 631.74 95.4933 631.74 94.64C631.74 93.7733 631.74 92.9333 631.74 92.12C631.74 91.3067 631.74 90.5867 631.74 89.96C631.74 89.3333 631.74 88.88 631.74 88.6C631.74 88.32 631.727 87.98 631.7 87.58C631.673 87.18 631.633 86.8267 631.58 86.52H633.54C633.513 86.8133 633.48 87.16 633.44 87.56C633.413 87.96 633.4 88.3067 633.4 88.6C633.4 89.12 633.4 89.7467 633.4 90.48C633.4 91.2 633.4 91.9733 633.4 92.8C633.4 93.6133 633.4 94.4267 633.4 95.24C633.413 96.04 633.42 96.7933 633.42 97.5C633.42 98.1933 633.42 98.7867 633.42 99.28C633.42 99.76 633.42 100.08 633.42 100.24C633.42 100.453 633.42 100.7 633.42 100.98C633.433 101.26 633.453 101.547 633.48 101.84C633.507 102.12 633.527 102.373 633.54 102.6H631.6C631.653 102.28 631.687 101.9 631.7 101.46C631.727 101.02 631.74 100.613 631.74 100.24ZM633.06 91.76C633.713 91.96 634.433 92.2 635.22 92.48C636.02 92.7467 636.833 93.0333 637.66 93.34C638.487 93.6467 639.267 93.96 640 94.28C640.747 94.5867 641.393 94.88 641.94 95.16L641.26 96.86C640.687 96.54 640.04 96.2267 639.32 95.92C638.6 95.6 637.86 95.2867 637.1 94.98C636.353 94.6733 635.627 94.4 634.92 94.16C634.227 93.9067 633.607 93.7 633.06 93.54V91.76Z" fill="black"/>
<path d="M228.1 87.64C228.1 88 228.227 88.3133 228.48 88.58C228.747 88.8333 229.06 88.96 229.42 88.96C229.793 88.96 230.107 88.8333 230.36 88.58C230.627 88.3133 230.76 88 230.76 87.64C230.76 87.2667 230.627 86.9533 230.36 86.7C230.107 86.4333 229.793 86.3 229.42 86.3C229.06 86.3 228.747 86.4333 228.48 86.7C228.227 86.9533 228.1 87.2667 228.1 87.64ZM227.18 87.64C227.18 87.2267 227.28 86.8533 227.48 86.52C227.693 86.1733 227.967 85.9 228.3 85.7C228.633 85.4867 229.007 85.38 229.42 85.38C229.833 85.38 230.207 85.4867 230.54 85.7C230.887 85.9 231.16 86.1733 231.36 86.52C231.573 86.8533 231.68 87.2267 231.68 87.64C231.68 88.0533 231.573 88.4267 231.36 88.76C231.16 89.0933 230.887 89.3667 230.54 89.58C230.207 89.78 229.833 89.88 229.42 89.88C229.007 89.88 228.633 89.78 228.3 89.58C227.967 89.3667 227.693 89.0933 227.48 88.76C227.28 88.4267 227.18 88.0533 227.18 87.64ZM228.92 88.98C228.853 89.1133 228.793 89.2667 228.74 89.44C228.7 89.6 228.66 89.78 228.62 89.98C228.513 90.5 228.373 91.08 228.2 91.72C228.027 92.36 227.813 93.02 227.56 93.7C227.32 94.3667 227.04 95.0133 226.72 95.64C226.4 96.2667 226.04 96.84 225.64 97.36C225.027 98.1333 224.347 98.8533 223.6 99.52C222.853 100.187 222 100.787 221.04 101.32C220.08 101.853 218.987 102.313 217.76 102.7L216.4 101.2C217.707 100.88 218.833 100.48 219.78 100C220.74 99.52 221.58 98.98 222.3 98.38C223.02 97.7667 223.653 97.1067 224.2 96.4C224.68 95.7867 225.093 95.1 225.44 94.34C225.8 93.5667 226.1 92.7933 226.34 92.02C226.58 91.2333 226.74 90.52 226.82 89.88C226.633 89.88 226.28 89.88 225.76 89.88C225.24 89.88 224.627 89.88 223.92 89.88C223.213 89.88 222.473 89.88 221.7 89.88C220.94 89.88 220.207 89.88 219.5 89.88C218.793 89.88 218.18 89.88 217.66 89.88C217.14 89.88 216.787 89.88 216.6 89.88C216.2 89.88 215.833 89.8867 215.5 89.9C215.167 89.9133 214.867 89.9267 214.6 89.94V88.16C214.787 88.1867 214.993 88.2133 215.22 88.24C215.447 88.2533 215.68 88.2667 215.92 88.28C216.16 88.2933 216.387 88.3 216.6 88.3C216.76 88.3 217.047 88.3 217.46 88.3C217.873 88.3 218.36 88.3 218.92 88.3C219.493 88.3 220.1 88.3 220.74 88.3C221.393 88.3 222.033 88.3 222.66 88.3C223.3 88.3 223.893 88.3 224.44 88.3C225 88.3 225.473 88.3 225.86 88.3C226.247 88.3 226.507 88.3 226.64 88.3C226.787 88.3 226.953 88.2933 227.14 88.28C227.327 88.2667 227.513 88.24 227.7 88.2L228.92 88.98ZM241.66 90.48C241.753 90.68 241.873 90.98 242.02 91.38C242.167 91.7667 242.32 92.18 242.48 92.62C242.653 93.06 242.807 93.48 242.94 93.88C243.073 94.2667 243.173 94.5733 243.24 94.8L241.76 95.32C241.707 95.0933 241.613 94.7867 241.48 94.4C241.36 94.0133 241.22 93.6 241.06 93.16C240.9 92.7067 240.74 92.2867 240.58 91.9C240.42 91.5133 240.293 91.2067 240.2 90.98L241.66 90.48ZM248.9 91.6C248.833 91.8 248.773 91.9867 248.72 92.16C248.68 92.32 248.64 92.4667 248.6 92.6C248.333 93.6933 247.973 94.7667 247.52 95.82C247.067 96.86 246.48 97.8333 245.76 98.74C244.84 99.9133 243.8 100.893 242.64 101.68C241.493 102.467 240.36 103.073 239.24 103.5L237.92 102.16C238.693 101.92 239.473 101.6 240.26 101.2C241.06 100.8 241.813 100.32 242.52 99.76C243.24 99.2 243.873 98.58 244.42 97.9C244.9 97.3133 245.327 96.6533 245.7 95.92C246.087 95.1867 246.407 94.4067 246.66 93.58C246.913 92.7533 247.087 91.9133 247.18 91.06L248.9 91.6ZM237.02 91.48C237.127 91.7067 237.26 92.0133 237.42 92.4C237.58 92.7867 237.747 93.2133 237.92 93.68C238.107 94.1333 238.28 94.5733 238.44 95C238.613 95.4133 238.747 95.7467 238.84 96L237.32 96.56C237.24 96.3067 237.12 95.9667 236.96 95.54C236.813 95.1 236.647 94.6467 236.46 94.18C236.273 93.7133 236.093 93.2867 235.92 92.9C235.76 92.5133 235.633 92.2333 235.54 92.06L237.02 91.48ZM258.02 86.64C258.313 86.8 258.66 87.0067 259.06 87.26C259.46 87.5133 259.873 87.78 260.3 88.06C260.727 88.34 261.12 88.6067 261.48 88.86C261.853 89.1 262.147 89.3 262.36 89.46L261.42 90.82C261.18 90.6467 260.88 90.4333 260.52 90.18C260.16 89.9267 259.773 89.6667 259.36 89.4C258.947 89.12 258.54 88.86 258.14 88.62C257.753 88.3667 257.413 88.1533 257.12 87.98L258.02 86.64ZM255.02 100.94C255.753 100.807 256.507 100.633 257.28 100.42C258.053 100.193 258.82 99.9333 259.58 99.64C260.34 99.3333 261.053 98.9867 261.72 98.6C262.827 97.96 263.853 97.2533 264.8 96.48C265.747 95.7067 266.6 94.88 267.36 94C268.12 93.12 268.767 92.2133 269.3 91.28L270.26 92.92C269.393 94.2667 268.293 95.56 266.96 96.8C265.64 98.04 264.18 99.1333 262.58 100.08C261.9 100.467 261.16 100.827 260.36 101.16C259.573 101.48 258.793 101.76 258.02 102C257.26 102.24 256.567 102.427 255.94 102.56L255.02 100.94ZM255 91.14C255.293 91.2867 255.647 91.4867 256.06 91.74C256.473 91.98 256.893 92.2333 257.32 92.5C257.747 92.7533 258.147 93 258.52 93.24C258.893 93.48 259.187 93.68 259.4 93.84L258.48 95.24C258.227 95.0533 257.913 94.84 257.54 94.6C257.18 94.3467 256.793 94.0933 256.38 93.84C255.967 93.5733 255.56 93.32 255.16 93.08C254.76 92.84 254.413 92.6467 254.12 92.5L255 91.14ZM286.74 92.48C286.713 92.5733 286.687 92.68 286.66 92.8C286.633 92.92 286.613 93.02 286.6 93.1C286.573 93.4067 286.52 93.82 286.44 94.34C286.373 94.86 286.293 95.4333 286.2 96.06C286.107 96.6867 286.013 97.3133 285.92 97.94C285.827 98.5533 285.74 99.12 285.66 99.64C285.593 100.147 285.533 100.54 285.48 100.82H283.78C283.833 100.593 283.893 100.247 283.96 99.78C284.04 99.3 284.127 98.76 284.22 98.16C284.327 97.56 284.42 96.96 284.5 96.36C284.58 95.7467 284.647 95.1933 284.7 94.7C284.767 94.1933 284.807 93.8067 284.82 93.54C284.567 93.54 284.207 93.54 283.74 93.54C283.273 93.54 282.76 93.54 282.2 93.54C281.653 93.54 281.113 93.54 280.58 93.54C280.047 93.54 279.587 93.54 279.2 93.54C278.827 93.54 278.58 93.54 278.46 93.54C278.167 93.54 277.887 93.5467 277.62 93.56C277.367 93.5733 277.113 93.5867 276.86 93.6V91.92C277.02 91.9467 277.187 91.9667 277.36 91.98C277.547 91.9933 277.733 92.0067 277.92 92.02C278.107 92.0333 278.28 92.04 278.44 92.04C278.6 92.04 278.873 92.04 279.26 92.04C279.647 92.04 280.087 92.04 280.58 92.04C281.087 92.04 281.6 92.04 282.12 92.04C282.64 92.04 283.113 92.04 283.54 92.04C283.98 92.04 284.307 92.04 284.52 92.04C284.64 92.04 284.76 92.0333 284.88 92.02C285.013 92.0067 285.14 91.9933 285.26 91.98C285.38 91.9533 285.467 91.9267 285.52 91.9L286.74 92.48ZM274.98 100.18C275.22 100.193 275.48 100.213 275.76 100.24C276.04 100.253 276.333 100.26 276.64 100.26C276.813 100.26 277.173 100.26 277.72 100.26C278.28 100.26 278.94 100.26 279.7 100.26C280.46 100.26 281.253 100.26 282.08 100.26C282.92 100.26 283.72 100.26 284.48 100.26C285.253 100.26 285.913 100.26 286.46 100.26C287.007 100.26 287.367 100.26 287.54 100.26C287.753 100.26 288.013 100.253 288.32 100.24C288.64 100.227 288.907 100.213 289.12 100.2V101.82C289 101.807 288.847 101.8 288.66 101.8C288.473 101.8 288.287 101.8 288.1 101.8C287.913 101.787 287.747 101.78 287.6 101.78C287.413 101.78 287.04 101.78 286.48 101.78C285.92 101.78 285.253 101.78 284.48 101.78C283.707 101.78 282.9 101.78 282.06 101.78C281.22 101.78 280.42 101.78 279.66 101.78C278.9 101.78 278.247 101.78 277.7 101.78C277.153 101.78 276.8 101.78 276.64 101.78C276.333 101.78 276.053 101.787 275.8 101.8C275.547 101.8 275.273 101.813 274.98 101.84V100.18Z" fill="black"/>
<path d="M634.06 257.38C634.353 257.407 634.647 257.433 634.94 257.46C635.247 257.487 635.56 257.5 635.88 257.5C636.107 257.5 636.453 257.5 636.92 257.5C637.387 257.5 637.907 257.5 638.48 257.5C639.067 257.5 639.647 257.5 640.22 257.5C640.793 257.5 641.307 257.5 641.76 257.5C642.227 257.5 642.573 257.5 642.8 257.5C643.08 257.5 643.387 257.493 643.72 257.48C644.067 257.453 644.38 257.42 644.66 257.38V259.04C644.367 259.013 644.053 259 643.72 259C643.4 258.987 643.093 258.98 642.8 258.98C642.573 258.98 642.227 258.98 641.76 258.98C641.307 258.98 640.793 258.98 640.22 258.98C639.647 258.98 639.073 258.98 638.5 258.98C637.927 258.98 637.407 258.98 636.94 258.98C636.473 258.98 636.127 258.98 635.9 258.98C635.567 258.98 635.24 258.987 634.92 259C634.613 259 634.327 259.013 634.06 259.04V257.38ZM631.7 262.4C631.967 262.427 632.24 262.453 632.52 262.48C632.813 262.493 633.113 262.5 633.42 262.5C633.593 262.5 633.933 262.5 634.44 262.5C634.96 262.5 635.587 262.5 636.32 262.5C637.067 262.5 637.867 262.5 638.72 262.5C639.573 262.5 640.427 262.5 641.28 262.5C642.133 262.5 642.927 262.5 643.66 262.5C644.407 262.5 645.033 262.5 645.54 262.5C646.047 262.5 646.373 262.5 646.52 262.5C646.733 262.5 646.987 262.493 647.28 262.48C647.573 262.467 647.84 262.44 648.08 262.4V264.06C647.867 264.047 647.613 264.04 647.32 264.04C647.04 264.027 646.773 264.02 646.52 264.02C646.373 264.02 646.047 264.02 645.54 264.02C645.033 264.02 644.407 264.02 643.66 264.02C642.927 264.02 642.133 264.02 641.28 264.02C640.427 264.02 639.573 264.02 638.72 264.02C637.867 264.02 637.067 264.02 636.32 264.02C635.587 264.02 634.96 264.02 634.44 264.02C633.933 264.02 633.593 264.02 633.42 264.02C633.127 264.02 632.833 264.02 632.54 264.02C632.247 264.02 631.967 264.033 631.7 264.06V262.4ZM641.1 263.22C641.1 264.473 641.007 265.627 640.82 266.68C640.647 267.72 640.34 268.66 639.9 269.5C639.66 269.94 639.333 270.387 638.92 270.84C638.52 271.28 638.067 271.7 637.56 272.1C637.067 272.5 636.533 272.847 635.96 273.14L634.48 272.04C635.253 271.72 635.98 271.287 636.66 270.74C637.34 270.193 637.873 269.607 638.26 268.98C638.767 268.18 639.087 267.3 639.22 266.34C639.353 265.367 639.42 264.327 639.42 263.22H641.1ZM645.7 255.76C645.873 255.987 646.06 256.267 646.26 256.6C646.46 256.92 646.653 257.247 646.84 257.58C647.04 257.913 647.207 258.22 647.34 258.5L646.26 258.98C646.06 258.567 645.807 258.1 645.5 257.58C645.193 257.047 644.907 256.587 644.64 256.2L645.7 255.76ZM647.9 254.96C648.073 255.2 648.267 255.487 648.48 255.82C648.693 256.153 648.9 256.487 649.1 256.82C649.3 257.14 649.46 257.427 649.58 257.68L648.5 258.16C648.287 257.72 648.027 257.247 647.72 256.74C647.427 256.22 647.133 255.773 646.84 255.4L647.9 254.96ZM652.04 263.34C652.24 263.353 652.487 263.373 652.78 263.4C653.073 263.413 653.393 263.427 653.74 263.44C654.1 263.44 654.46 263.44 654.82 263.44C655.033 263.44 655.36 263.44 655.8 263.44C656.253 263.44 656.78 263.44 657.38 263.44C657.98 263.44 658.613 263.44 659.28 263.44C659.96 263.44 660.633 263.44 661.3 263.44C661.98 263.44 662.62 263.44 663.22 263.44C663.833 263.44 664.36 263.44 664.8 263.44C665.24 263.44 665.567 263.44 665.78 263.44C666.287 263.44 666.72 263.427 667.08 263.4C667.44 263.373 667.727 263.353 667.94 263.34V265.3C667.74 265.287 667.44 265.267 667.04 265.24C666.653 265.213 666.24 265.2 665.8 265.2C665.587 265.2 665.253 265.2 664.8 265.2C664.347 265.2 663.82 265.2 663.22 265.2C662.633 265.2 662 265.2 661.32 265.2C660.64 265.2 659.96 265.2 659.28 265.2C658.613 265.2 657.98 265.2 657.38 265.2C656.793 265.2 656.273 265.2 655.82 265.2C655.367 265.2 655.033 265.2 654.82 265.2C654.273 265.2 653.753 265.213 653.26 265.24C652.767 265.253 652.36 265.273 652.04 265.3V263.34ZM678.3 262.84C678.94 263.213 679.613 263.627 680.32 264.08C681.027 264.533 681.727 265.007 682.42 265.5C683.127 265.98 683.8 266.453 684.44 266.92C685.08 267.387 685.647 267.827 686.14 268.24L684.96 269.62C684.507 269.207 683.96 268.753 683.32 268.26C682.693 267.753 682.027 267.247 681.32 266.74C680.613 266.22 679.907 265.72 679.2 265.24C678.493 264.76 677.833 264.327 677.22 263.94L678.3 262.84ZM687.46 259.18C687.367 259.327 687.28 259.507 687.2 259.72C687.12 259.92 687.047 260.1 686.98 260.26C686.793 260.94 686.527 261.673 686.18 262.46C685.833 263.247 685.427 264.04 684.96 264.84C684.493 265.627 683.96 266.387 683.36 267.12C682.467 268.227 681.347 269.293 680 270.32C678.667 271.333 677.053 272.187 675.16 272.88L673.72 271.64C674.96 271.253 676.087 270.78 677.1 270.22C678.127 269.647 679.047 269.02 679.86 268.34C680.673 267.66 681.38 266.96 681.98 266.24C682.5 265.627 682.973 264.953 683.4 264.22C683.84 263.487 684.22 262.76 684.54 262.04C684.86 261.307 685.093 260.627 685.24 260H677.82L678.46 258.58H684.82C685.087 258.58 685.333 258.567 685.56 258.54C685.787 258.5 685.98 258.447 686.14 258.38L687.46 259.18ZM680.72 256.3C680.547 256.567 680.38 256.847 680.22 257.14C680.06 257.433 679.927 257.673 679.82 257.86C679.42 258.593 678.9 259.4 678.26 260.28C677.633 261.147 676.893 262.013 676.04 262.88C675.2 263.747 674.247 264.553 673.18 265.3L671.84 264.26C672.987 263.553 673.98 262.773 674.82 261.92C675.66 261.067 676.367 260.233 676.94 259.42C677.513 258.607 677.953 257.9 678.26 257.3C678.367 257.127 678.487 256.887 678.62 256.58C678.753 256.26 678.847 255.973 678.9 255.72L680.72 256.3Z" fill="black"/>
<path d="M678.253 454.26C676.959 454.26 675.813 453.96 674.813 453.36C673.826 452.76 673.046 451.893 672.473 450.76C671.913 449.627 671.633 448.267 671.633 446.68C671.633 445.493 671.799 444.433 672.133 443.5C672.466 442.553 672.933 441.753 673.533 441.1C674.146 440.447 674.859 439.947 675.673 439.6C676.486 439.253 677.379 439.08 678.353 439.08C679.379 439.08 680.233 439.273 680.913 439.66C681.593 440.033 682.146 440.44 682.573 440.88L681.573 442.08C681.199 441.693 680.759 441.367 680.253 441.1C679.759 440.833 679.146 440.7 678.413 440.7C677.426 440.7 676.566 440.94 675.833 441.42C675.099 441.9 674.533 442.587 674.133 443.48C673.733 444.36 673.533 445.407 673.533 446.62C673.533 447.86 673.719 448.933 674.093 449.84C674.479 450.733 675.039 451.427 675.773 451.92C676.506 452.4 677.393 452.64 678.433 452.64C678.953 452.64 679.446 452.567 679.913 452.42C680.393 452.26 680.779 452.047 681.073 451.78V447.94H677.953V446.4H682.773V452.56C682.293 453.053 681.659 453.46 680.873 453.78C680.099 454.1 679.226 454.26 678.253 454.26ZM686.102 454V443.14H687.942V454H686.102ZM687.022 440.9C686.662 440.9 686.368 440.793 686.142 440.58C685.928 440.353 685.822 440.053 685.822 439.68C685.822 439.32 685.928 439.033 686.142 438.82C686.368 438.607 686.662 438.5 687.022 438.5C687.382 438.5 687.675 438.607 687.902 438.82C688.128 439.033 688.242 439.32 688.242 439.68C688.242 440.053 688.128 440.353 687.902 440.58C687.675 440.793 687.382 440.9 687.022 440.9ZM695.01 454.26C694.25 454.26 693.643 454.113 693.19 453.82C692.736 453.513 692.41 453.087 692.21 452.54C692.023 451.993 691.93 451.36 691.93 450.64V444.62H690.31V443.24L692.03 443.14L692.23 440.08H693.75V443.14H696.71V444.62H693.75V450.7C693.75 451.353 693.87 451.867 694.11 452.24C694.363 452.6 694.803 452.78 695.43 452.78C695.63 452.78 695.843 452.753 696.07 452.7C696.296 452.633 696.496 452.56 696.67 452.48L697.03 453.86C696.723 453.967 696.396 454.06 696.05 454.14C695.703 454.22 695.356 454.26 695.01 454.26ZM699.329 454V439.34H701.169V445.48H708.009V439.34H709.869V454H708.009V447.08H701.169V454H699.329ZM716.879 454.26C715.733 454.26 714.886 453.9 714.339 453.18C713.806 452.46 713.539 451.407 713.539 450.02V443.14H715.379V449.8C715.379 450.8 715.539 451.533 715.859 452C716.179 452.453 716.699 452.68 717.419 452.68C717.979 452.68 718.479 452.533 718.919 452.24C719.359 451.947 719.839 451.48 720.359 450.84V443.14H722.179V454H720.659L720.519 452.3H720.459C719.953 452.887 719.413 453.36 718.839 453.72C718.279 454.08 717.626 454.26 716.879 454.26ZM730.628 454.26C730.134 454.26 729.614 454.14 729.068 453.9C728.521 453.66 728.014 453.32 727.548 452.88H727.468L727.308 454H725.848V438.08H727.688V442.44L727.608 444.38C728.101 443.953 728.641 443.593 729.228 443.3C729.814 443.007 730.414 442.86 731.028 442.86C731.961 442.86 732.748 443.093 733.388 443.56C734.028 444.013 734.514 444.653 734.848 445.48C735.181 446.307 735.348 447.28 735.348 448.4C735.348 449.627 735.121 450.68 734.668 451.56C734.228 452.44 733.648 453.113 732.928 453.58C732.221 454.033 731.454 454.26 730.628 454.26ZM730.328 452.72C730.928 452.72 731.461 452.553 731.928 452.22C732.408 451.873 732.781 451.38 733.048 450.74C733.314 450.087 733.448 449.313 733.448 448.42C733.448 447.62 733.348 446.92 733.148 446.32C732.961 445.707 732.661 445.233 732.248 444.9C731.834 444.567 731.274 444.4 730.568 444.4C730.114 444.4 729.648 444.527 729.168 444.78C728.688 445.033 728.194 445.4 727.688 445.88V451.6C728.154 452.013 728.621 452.307 729.088 452.48C729.568 452.64 729.981 452.72 730.328 452.72ZM740.924 454L745.884 439.34H747.944L752.924 454H750.964L748.404 445.8C748.137 444.96 747.884 444.14 747.644 443.34C747.404 442.527 747.164 441.693 746.924 440.84H746.844C746.617 441.693 746.377 442.527 746.124 443.34C745.884 444.14 745.637 444.96 745.384 445.8L742.784 454H740.924ZM743.504 449.52V448.06H750.264V449.52H743.504ZM755.032 454V439.34H759.212C760.305 439.34 761.265 439.48 762.092 439.76C762.918 440.027 763.558 440.473 764.012 441.1C764.465 441.727 764.692 442.573 764.692 443.64C764.692 444.667 764.465 445.513 764.012 446.18C763.558 446.847 762.925 447.347 762.112 447.68C761.298 448 760.358 448.16 759.292 448.16H756.872V454H755.032ZM756.872 446.66H759.052C760.332 446.66 761.285 446.42 761.912 445.94C762.538 445.46 762.852 444.693 762.852 443.64C762.852 442.573 762.525 441.84 761.872 441.44C761.232 441.04 760.265 440.84 758.972 440.84H756.872V446.66ZM767.688 454V439.34H769.528V454H767.688Z" fill="black"/>
<path d="M718.694 138.2C717.308 138.2 716.128 137.887 715.154 137.26C714.194 136.633 713.461 135.78 712.954 134.7C712.461 133.607 712.214 132.373 712.214 131C712.214 129.6 712.474 128.36 712.994 127.28C713.514 126.2 714.268 125.353 715.254 124.74C716.254 124.113 717.454 123.8 718.854 123.8C719.948 123.8 720.901 123.987 721.714 124.36C722.541 124.72 723.181 125.247 723.634 125.94C724.101 126.62 724.348 127.44 724.374 128.4H722.494C722.454 127.653 722.254 127.053 721.894 126.6C721.534 126.147 721.081 125.82 720.534 125.62C719.988 125.407 719.401 125.3 718.774 125.3C717.334 125.3 716.201 125.807 715.374 126.82C714.561 127.82 714.154 129.213 714.154 131C714.154 132.773 714.548 134.167 715.334 135.18C716.121 136.193 717.241 136.7 718.694 136.7C719.334 136.7 719.934 136.593 720.494 136.38C721.054 136.153 721.514 135.8 721.874 135.32C722.248 134.827 722.454 134.187 722.494 133.4H724.394C724.368 134.387 724.088 135.24 723.554 135.96C723.021 136.68 722.328 137.233 721.474 137.62C720.621 138.007 719.694 138.2 718.694 138.2ZM727.077 138V124H728.957V138H727.077Z" fill="black"/>
<path d="M33.1594 138V124H37.6394C39.2127 124 40.4994 124.313 41.4994 124.94C42.5127 125.553 43.2594 126.387 43.7394 127.44C44.2327 128.493 44.4794 129.68 44.4794 131C44.4794 132.32 44.2327 133.507 43.7394 134.56C43.2594 135.613 42.5127 136.453 41.4994 137.08C40.4994 137.693 39.2127 138 37.6394 138H33.1594ZM37.4394 125.44H35.0394V136.56H37.4394C38.666 136.56 39.6527 136.333 40.3994 135.88C41.146 135.413 41.686 134.76 42.0194 133.92C42.366 133.08 42.5394 132.107 42.5394 131C42.5394 129.88 42.366 128.907 42.0194 128.08C41.686 127.24 41.146 126.593 40.3994 126.14C39.6527 125.673 38.666 125.44 37.4394 125.44ZM51.2609 138.2C50.2609 138.2 49.3876 137.98 48.6409 137.54C47.9076 137.1 47.3409 136.473 46.9409 135.66C46.5409 134.847 46.3409 133.893 46.3409 132.8C46.3409 131.693 46.5409 130.74 46.9409 129.94C47.3409 129.127 47.9009 128.5 48.6209 128.06C49.3409 127.62 50.1809 127.4 51.1409 127.4C52.5676 127.4 53.6743 127.847 54.4609 128.74C55.2476 129.633 55.6409 130.873 55.6409 132.46V133.12H48.1809C48.2343 134.307 48.5209 135.22 49.0409 135.86C49.5743 136.487 50.3143 136.8 51.2609 136.8C51.9809 136.8 52.5543 136.607 52.9809 136.22C53.4076 135.833 53.6476 135.293 53.7009 134.6H55.5009C55.4876 135.293 55.2876 135.913 54.9009 136.46C54.5276 136.993 54.0276 137.42 53.4009 137.74C52.7743 138.047 52.0609 138.2 51.2609 138.2ZM51.1409 128.8C50.3543 128.8 49.7076 129.053 49.2009 129.56C48.7076 130.053 48.3943 130.773 48.2609 131.72H53.8409C53.7876 130.813 53.5276 130.1 53.0609 129.58C52.6076 129.06 51.9676 128.8 51.1409 128.8ZM60.4766 138L56.7566 127.6H58.6366L61.5966 136.54L64.6766 127.6H66.4966L62.6766 138H60.4766ZM72.4133 138.2C71.4133 138.2 70.5399 137.98 69.7933 137.54C69.0599 137.1 68.4933 136.473 68.0933 135.66C67.6933 134.847 67.4933 133.893 67.4933 132.8C67.4933 131.693 67.6933 130.74 68.0933 129.94C68.4933 129.127 69.0533 128.5 69.7733 128.06C70.4933 127.62 71.3333 127.4 72.2933 127.4C73.7199 127.4 74.8266 127.847 75.6133 128.74C76.3999 129.633 76.7933 130.873 76.7933 132.46V133.12H69.3333C69.3866 134.307 69.6733 135.22 70.1933 135.86C70.7266 136.487 71.4666 136.8 72.4133 136.8C73.1333 136.8 73.7066 136.607 74.1333 136.22C74.5599 135.833 74.7999 135.293 74.8533 134.6H76.6533C76.6399 135.293 76.4399 135.913 76.0533 136.46C75.6799 136.993 75.1799 137.42 74.5533 137.74C73.9266 138.047 73.2133 138.2 72.4133 138.2ZM72.2933 128.8C71.5066 128.8 70.8599 129.053 70.3533 129.56C69.8599 130.053 69.5466 130.773 69.4133 131.72H74.9933C74.9399 130.813 74.6799 130.1 74.2133 129.58C73.7599 129.06 73.1199 128.8 72.2933 128.8ZM79.347 138V124H81.147V138H79.347ZM88.5652 138.2C87.5652 138.2 86.6985 137.967 85.9652 137.5C85.2318 137.033 84.6652 136.393 84.2652 135.58C83.8652 134.767 83.6652 133.84 83.6652 132.8C83.6652 131.76 83.8652 130.833 84.2652 130.02C84.6652 129.207 85.2318 128.567 85.9652 128.1C86.6985 127.633 87.5652 127.4 88.5652 127.4C89.5785 127.4 90.4452 127.633 91.1652 128.1C91.8985 128.567 92.4652 129.207 92.8652 130.02C93.2652 130.833 93.4652 131.76 93.4652 132.8C93.4652 133.84 93.2652 134.767 92.8652 135.58C92.4652 136.393 91.8985 137.033 91.1652 137.5C90.4452 137.967 89.5785 138.2 88.5652 138.2ZM88.5652 136.8C89.5385 136.8 90.2785 136.433 90.7852 135.7C91.3052 134.953 91.5652 133.987 91.5652 132.8C91.5652 131.613 91.3052 130.653 90.7852 129.92C90.2785 129.173 89.5385 128.8 88.5652 128.8C87.5918 128.8 86.8452 129.173 86.3252 129.92C85.8185 130.653 85.5652 131.613 85.5652 132.8C85.5652 133.987 85.8185 134.953 86.3252 135.7C86.8452 136.433 87.5918 136.8 88.5652 136.8ZM95.9877 142.96V127.6H97.6877V129.16C98.381 127.987 99.4943 127.4 101.028 127.4C101.974 127.4 102.768 127.64 103.408 128.12C104.061 128.587 104.554 129.233 104.888 130.06C105.234 130.873 105.408 131.793 105.408 132.82C105.408 133.82 105.234 134.727 104.888 135.54C104.554 136.353 104.061 137 103.408 137.48C102.768 137.96 101.974 138.2 101.028 138.2C99.5743 138.2 98.4943 137.667 97.7877 136.6V142.96H95.9877ZM100.608 136.8C101.648 136.8 102.394 136.427 102.848 135.68C103.314 134.933 103.548 133.98 103.548 132.82C103.548 131.553 103.301 130.567 102.808 129.86C102.328 129.153 101.594 128.8 100.608 128.8C99.7543 128.8 99.0477 129.107 98.4877 129.72C97.941 130.32 97.6677 131.347 97.6677 132.8C97.6677 134.253 97.941 135.287 98.4877 135.9C99.0477 136.5 99.7543 136.8 100.608 136.8ZM112.101 138.2C111.101 138.2 110.227 137.98 109.481 137.54C108.747 137.1 108.181 136.473 107.781 135.66C107.381 134.847 107.181 133.893 107.181 132.8C107.181 131.693 107.381 130.74 107.781 129.94C108.181 129.127 108.741 128.5 109.461 128.06C110.181 127.62 111.021 127.4 111.981 127.4C113.407 127.4 114.514 127.847 115.301 128.74C116.087 129.633 116.481 130.873 116.481 132.46V133.12H109.021C109.074 134.307 109.361 135.22 109.881 135.86C110.414 136.487 111.154 136.8 112.101 136.8C112.821 136.8 113.394 136.607 113.821 136.22C114.247 135.833 114.487 135.293 114.541 134.6H116.341C116.327 135.293 116.127 135.913 115.741 136.46C115.367 136.993 114.867 137.42 114.241 137.74C113.614 138.047 112.901 138.2 112.101 138.2ZM111.981 128.8C111.194 128.8 110.547 129.053 110.041 129.56C109.547 130.053 109.234 130.773 109.101 131.72H114.681C114.627 130.813 114.367 130.1 113.901 129.58C113.447 129.06 112.807 128.8 111.981 128.8ZM119.035 138V127.6H120.735V129.38C120.908 128.727 121.215 128.253 121.655 127.96C122.108 127.653 122.641 127.5 123.255 127.5H124.255V129H123.155C122.341 129 121.748 129.273 121.375 129.82C121.015 130.353 120.835 131.2 120.835 132.36V138H119.035Z" fill="black"/>
<path d="M64.0309 448.2C62.8042 448.2 61.8042 447.967 61.0309 447.5C60.2575 447.02 59.6909 446.373 59.3309 445.56C58.9709 444.747 58.7909 443.827 58.7909 442.8V434H60.6709V442.6C60.6709 443.373 60.7709 444.073 60.9709 444.7C61.1842 445.313 61.5375 445.8 62.0309 446.16C62.5242 446.52 63.1909 446.7 64.0309 446.7C64.8709 446.7 65.5375 446.52 66.0309 446.16C66.5242 445.8 66.8709 445.313 67.0709 444.7C67.2842 444.073 67.3909 443.373 67.3909 442.6V434H69.2709V442.8C69.2709 443.827 69.0909 444.747 68.7309 445.56C68.3709 446.373 67.8042 447.02 67.0309 447.5C66.2575 447.967 65.2575 448.2 64.0309 448.2ZM75.7418 448.2C74.5818 448.2 73.6218 447.953 72.8618 447.46C72.1151 446.953 71.7085 446.147 71.6418 445.04H73.5218C73.5218 445.613 73.7218 446.06 74.1218 446.38C74.5351 446.687 75.0818 446.84 75.7618 446.84C76.4151 446.84 76.9218 446.713 77.2818 446.46C77.6551 446.193 77.8418 445.8 77.8418 445.28C77.8418 444.52 77.4085 444.027 76.5418 443.8L74.5018 443.26C73.6218 443.033 72.9618 442.707 72.5218 442.28C72.0818 441.84 71.8618 441.213 71.8618 440.4C71.8618 439.84 72.0218 439.333 72.3418 438.88C72.6618 438.427 73.1085 438.067 73.6818 437.8C74.2685 437.533 74.9485 437.4 75.7218 437.4C76.6018 437.4 77.3151 437.54 77.8618 437.82C78.4218 438.087 78.8418 438.447 79.1218 438.9C79.4018 439.353 79.5485 439.84 79.5618 440.36H77.7618C77.7218 439.92 77.5418 439.547 77.2218 439.24C76.9151 438.92 76.4085 438.76 75.7018 438.76C75.0618 438.76 74.5551 438.893 74.1818 439.16C73.8218 439.427 73.6418 439.787 73.6418 440.24C73.6418 440.72 73.7885 441.06 74.0818 441.26C74.3885 441.46 74.7218 441.607 75.0818 441.7L77.0618 442.22C77.9951 442.46 78.6551 442.793 79.0418 443.22C79.4285 443.647 79.6218 444.22 79.6218 444.94C79.6218 445.94 79.2685 446.733 78.5618 447.32C77.8685 447.907 76.9285 448.2 75.7418 448.2ZM86.3293 448.2C85.3293 448.2 84.456 447.98 83.7093 447.54C82.976 447.1 82.4093 446.473 82.0093 445.66C81.6093 444.847 81.4093 443.893 81.4093 442.8C81.4093 441.693 81.6093 440.74 82.0093 439.94C82.4093 439.127 82.9693 438.5 83.6893 438.06C84.4093 437.62 85.2493 437.4 86.2093 437.4C87.636 437.4 88.7426 437.847 89.5293 438.74C90.316 439.633 90.7093 440.873 90.7093 442.46V443.12H83.2493C83.3026 444.307 83.5893 445.22 84.1093 445.86C84.6426 446.487 85.3826 446.8 86.3293 446.8C87.0493 446.8 87.6226 446.607 88.0493 446.22C88.476 445.833 88.716 445.293 88.7693 444.6H90.5693C90.556 445.293 90.356 445.913 89.9693 446.46C89.596 446.993 89.096 447.42 88.4693 447.74C87.8426 448.047 87.1293 448.2 86.3293 448.2ZM86.2093 438.8C85.4226 438.8 84.776 439.053 84.2693 439.56C83.776 440.053 83.4626 440.773 83.3293 441.72H88.9093C88.856 440.813 88.596 440.1 88.1293 439.58C87.676 439.06 87.036 438.8 86.2093 438.8ZM93.263 448V437.6H94.963V439.38C95.1364 438.727 95.443 438.253 95.883 437.96C96.3364 437.653 96.8697 437.5 97.483 437.5H98.483V439H97.383C96.5697 439 95.9764 439.273 95.603 439.82C95.243 440.353 95.063 441.2 95.063 442.36V448H93.263Z" fill="black"/>
<path d="M96.676 404.616C98.4033 403.437 100.429 402.77 102.519 402.694C104.61 402.618 106.679 403.135 108.487 404.186C110.296 405.236 111.77 406.778 112.739 408.631C113.708 410.485 114.133 412.575 113.964 414.66C109.534 416.208 104.828 416.81 100.151 416.428C100.136 412.243 98.931 408.145 96.676 404.62C94.6744 401.481 91.9132 398.897 88.6481 397.108C85.383 395.319 81.7193 394.382 77.9962 394.385C74.2737 394.383 70.6108 395.32 67.3464 397.109C64.0819 398.898 61.3214 401.481 59.3201 404.62M100.147 416.424L100.151 416.539C100.151 417.37 100.106 418.189 100.014 418.998C93.3136 422.842 85.721 424.859 77.9962 424.847C69.9837 424.847 62.4623 422.72 55.9785 418.998C55.8836 418.144 55.838 417.284 55.8419 416.424M55.8419 416.424C51.166 416.821 46.4629 416.22 42.0361 414.663C41.8675 412.579 42.2923 410.49 43.2613 408.637C44.2303 406.784 45.704 405.243 47.5119 404.193C49.3198 403.142 51.3881 402.625 53.4777 402.7C55.5673 402.776 57.5929 403.441 59.3201 404.62M55.8419 416.424C55.8551 412.24 57.0664 408.146 59.3201 404.62M89.0734 372.23C89.0734 375.168 87.9063 377.986 85.8289 380.063C83.7516 382.14 80.934 383.307 77.9962 383.307C75.0584 383.307 72.2408 382.14 70.1635 380.063C68.0861 377.986 66.919 375.168 66.919 372.23C66.919 369.292 68.0861 366.475 70.1635 364.398C72.2408 362.32 75.0584 361.153 77.9962 361.153C80.934 361.153 83.7516 362.32 85.8289 364.398C87.9063 366.475 89.0734 369.292 89.0734 372.23ZM111.228 383.307C111.228 384.398 111.013 385.479 110.595 386.487C110.178 387.495 109.566 388.411 108.794 389.182C108.023 389.953 107.107 390.565 106.099 390.983C105.091 391.4 104.011 391.615 102.92 391.615C101.829 391.615 100.748 391.4 99.7405 390.983C98.7326 390.565 97.8167 389.953 97.0453 389.182C96.2738 388.411 95.6618 387.495 95.2443 386.487C94.8268 385.479 94.6119 384.398 94.6119 383.307C94.6119 381.104 95.4872 378.991 97.0453 377.433C98.6033 375.875 100.716 375 102.92 375C105.123 375 107.236 375.875 108.794 377.433C110.352 378.991 111.228 381.104 111.228 383.307ZM61.3805 383.307C61.3805 384.398 61.1656 385.479 60.7481 386.487C60.3306 387.495 59.7186 388.411 58.9471 389.182C58.1757 389.953 57.2598 390.565 56.2519 390.983C55.2439 391.4 54.1636 391.615 53.0726 391.615C51.9816 391.615 50.9013 391.4 49.8933 390.983C48.8854 390.565 47.9695 389.953 47.198 389.182C46.4266 388.411 45.8146 387.495 45.3971 386.487C44.9796 385.479 44.7647 384.398 44.7647 383.307C44.7647 381.104 45.64 378.991 47.198 377.433C48.7561 375.875 50.8692 375 53.0726 375C55.276 375 57.3891 375.875 58.9471 377.433C60.5052 378.991 61.3805 381.104 61.3805 383.307Z" stroke="black" stroke-width="4" stroke-linecap="round" stroke-linejoin="round"/>
<path d="M311.465 399.538C311.847 403.107 315.093 409.225 324.515 409.225C332.726 409.225 336.673 403.999 336.673 398.901C336.673 394.312 333.553 390.552 327.379 389.277L322.923 388.321C321.204 388.003 320.059 387.047 320.059 385.517C320.059 383.733 321.841 382.394 324.069 382.394C327.633 382.394 328.97 384.752 329.225 386.601L336.291 385.007C335.909 381.629 332.917 375.957 324.005 375.957C317.258 375.957 312.293 380.61 312.293 386.218C312.293 390.615 315.03 394.248 321.077 395.587L325.215 396.543C327.633 397.052 328.589 398.2 328.589 399.602C328.589 401.259 327.252 402.724 324.451 402.724C320.759 402.724 318.913 400.43 318.722 397.945L311.465 399.538Z" fill="#1F1F1F"/>
<path d="M363.728 408.269H371.813C371.685 407.186 371.494 405.019 371.494 402.597V376.913H363.027V395.14C363.027 398.773 360.864 401.322 357.108 401.322C353.162 401.322 351.379 398.518 351.379 395.013V376.913H342.913V396.734C342.913 403.553 347.241 409.098 354.816 409.098C358.126 409.098 361.756 407.823 363.474 404.891C363.474 406.166 363.601 407.632 363.728 408.269Z" fill="#1F1F1F"/>
<path d="M388.995 420.378V405.21C390.523 407.313 393.706 409.034 398.035 409.034C406.883 409.034 412.802 402.023 412.802 392.527C412.802 383.223 407.519 376.212 398.353 376.212C393.643 376.212 390.142 378.315 388.741 380.737V376.913H380.53V420.378H388.995ZM404.463 392.591C404.463 398.2 401.026 401.45 396.698 401.45C392.37 401.45 388.869 398.136 388.869 392.591C388.869 387.047 392.37 383.796 396.698 383.796C401.026 383.796 404.463 387.047 404.463 392.591Z" fill="#1F1F1F"/>
<path d="M417.596 399.729C417.596 404.636 421.67 409.161 428.354 409.161C433 409.161 435.992 406.994 437.583 404.509C437.583 405.72 437.711 407.44 437.902 408.269H445.668C445.476 407.186 445.286 404.955 445.286 403.298V387.875C445.286 381.566 441.594 375.957 431.664 375.957C423.262 375.957 418.741 381.374 418.233 386.282L425.744 387.875C425.999 385.135 428.036 382.777 431.727 382.777C435.293 382.777 437.011 384.625 437.011 386.855C437.011 387.939 436.439 388.831 434.656 389.086L426.954 390.233C421.734 390.998 417.596 394.121 417.596 399.729ZM430.136 402.852C427.399 402.852 426.062 401.067 426.062 399.219C426.062 396.797 427.78 395.587 429.945 395.268L437.011 394.184V395.587C437.011 401.131 433.701 402.852 430.136 402.852Z" fill="#1F1F1F"/>
<path d="M462.032 408.269V404.445C463.686 407.122 466.996 409.034 471.325 409.034C480.238 409.034 486.094 401.96 486.094 392.464C486.094 383.159 480.81 376.085 471.644 376.085C466.996 376.085 463.559 378.124 462.159 380.355V362.128H453.82V408.269H462.032ZM477.627 392.527C477.627 398.263 474.19 401.45 469.861 401.45C465.596 401.45 462.032 398.2 462.032 392.527C462.032 386.792 465.596 383.669 469.861 383.669C474.19 383.669 477.627 386.792 477.627 392.527Z" fill="#1F1F1F"/>
<path d="M490.887 399.729C490.887 404.636 494.961 409.161 501.645 409.161C506.291 409.161 509.284 406.994 510.874 404.509C510.874 405.72 511.002 407.44 511.193 408.269H518.959C518.769 407.186 518.578 404.955 518.578 403.298V387.875C518.578 381.566 514.885 375.957 504.955 375.957C496.553 375.957 492.033 381.374 491.524 386.282L499.034 387.875C499.29 385.135 501.327 382.777 505.018 382.777C508.584 382.777 510.302 384.625 510.302 386.855C510.302 387.939 509.729 388.831 507.946 389.086L500.245 390.233C495.025 390.998 490.887 394.121 490.887 399.729ZM503.428 402.852C500.69 402.852 499.353 401.067 499.353 399.219C499.353 396.797 501.071 395.587 503.236 395.268L510.302 394.184V395.587C510.302 401.131 506.992 402.852 503.428 402.852Z" fill="#1F1F1F"/>
<path d="M524.438 399.538C524.819 403.107 528.066 409.225 537.486 409.225C545.698 409.225 549.644 403.999 549.644 398.901C549.644 394.312 546.526 390.552 540.351 389.277L535.894 388.321C534.176 388.003 533.031 387.047 533.031 385.517C533.031 383.733 534.813 382.394 537.041 382.394C540.606 382.394 541.942 384.752 542.198 386.601L549.263 385.007C548.881 381.629 545.889 375.957 536.978 375.957C530.229 375.957 525.265 380.61 525.265 386.218C525.265 390.615 528.001 394.248 534.049 395.587L538.187 396.543C540.606 397.052 541.561 398.2 541.561 399.602C541.561 401.259 540.224 402.724 537.423 402.724C533.731 402.724 531.885 400.43 531.694 397.945L524.438 399.538Z" fill="#1F1F1F"/>
<path d="M562.502 389.022C562.693 386.154 565.112 382.84 569.504 382.84C574.342 382.84 576.379 385.899 576.507 389.022H562.502ZM577.335 397.18C576.316 399.984 574.151 401.96 570.205 401.96C566.003 401.96 562.502 398.964 562.312 394.822H584.718C584.718 394.694 584.845 393.42 584.845 392.209C584.845 382.139 579.053 375.957 569.377 375.957C561.357 375.957 553.972 382.458 553.972 392.464C553.972 403.043 561.547 409.225 570.141 409.225C577.843 409.225 582.808 404.7 584.4 399.283L577.335 397.18Z" fill="#1F1F1F"/>
<path d="M255.592 427.269C253.77 429.564 250.076 428.307 250.032 425.377L249.39 382.527H278.203C283.422 382.527 286.332 388.554 283.087 392.642L255.592 427.269Z" fill="url(#paint0_linear_145_2)"/>
<path d="M255.592 427.269C253.77 429.564 250.076 428.307 250.032 425.377L249.39 382.527H278.203C283.422 382.527 286.332 388.554 283.087 392.642L255.592 427.269Z" fill="url(#paint1_linear_145_2)" fill-opacity="0.2"/>
<path d="M243.875 358.32C245.697 356.025 249.391 357.282 249.435 360.212L249.716 403.062H221.264C216.045 403.062 213.135 397.035 216.38 392.947L243.875 358.32Z" fill="#3ECF8E"/>
<path d="M324.75 309.25C325.546 309.25 326.309 309.566 326.871 310.129C327.434 310.691 327.75 311.454 327.75 312.25M330.75 312.25C330.75 313.125 330.559 313.99 330.19 314.783C329.82 315.576 329.282 316.279 328.612 316.843C327.942 317.406 327.158 317.816 326.313 318.044C325.468 318.272 324.583 318.312 323.721 318.162C323.158 318.065 322.562 318.188 322.158 318.592L319.5 321.25H317.25V323.5H315V325.75H311.25V322.932C311.25 322.335 311.487 321.762 311.909 321.341L318.408 314.842C318.812 314.438 318.935 313.842 318.838 313.279C318.696 312.46 318.726 311.621 318.926 310.814C319.125 310.007 319.49 309.251 319.997 308.593C320.505 307.934 321.143 307.389 321.872 306.99C322.602 306.592 323.406 306.349 324.234 306.277C325.062 306.206 325.895 306.307 326.682 306.575C327.469 306.842 328.191 307.27 328.804 307.832C329.417 308.393 329.906 309.076 330.241 309.837C330.576 310.597 330.749 311.419 330.75 312.25Z" stroke="black" stroke-width="1.5" stroke-linecap="round" stroke-linejoin="round"/>
<path d="M435.25 310.375C435.25 312.653 431.556 314.5 427 314.5C422.444 314.5 418.75 312.653 418.75 310.375M435.25 310.375C435.25 308.097 431.556 306.25 427 306.25C422.444 306.25 418.75 308.097 418.75 310.375M435.25 310.375V321.625C435.25 323.903 431.556 325.75 427 325.75C422.444 325.75 418.75 323.903 418.75 321.625V310.375M435.25 310.375V314.125M418.75 310.375V314.125M435.25 314.125V317.875C435.25 320.153 431.556 322 427 322C422.444 322 418.75 320.153 418.75 317.875V314.125M435.25 314.125C435.25 316.403 431.556 318.25 427 318.25C422.444 318.25 418.75 316.403 418.75 314.125" stroke="black" stroke-width="1.5" stroke-linecap="round" stroke-linejoin="round"/>
<path d="M201 94.25L198 91.25M198 91.25L195 94.25M198 91.25V98.75M207 95C207 96.1819 206.767 97.3522 206.315 98.4442C205.863 99.5361 205.2 100.528 204.364 101.364C203.528 102.2 202.536 102.863 201.444 103.315C200.352 103.767 199.182 104 198 104C196.818 104 195.648 103.767 194.556 103.315C193.464 102.863 192.472 102.2 191.636 101.364C190.8 100.528 190.137 99.5361 189.685 98.4442C189.233 97.3522 189 96.1819 189 95C189 92.6131 189.948 90.3239 191.636 88.636C193.324 86.9482 195.613 86 198 86C200.387 86 202.676 86.9482 204.364 88.636C206.052 90.3239 207 92.6131 207 95Z" stroke="black" stroke-width="1.5" stroke-linecap="round" stroke-linejoin="round"/>
<path d="M623 267.1V264.65C623 263.815 622.668 263.013 622.077 262.423C621.487 261.832 620.685 261.5 619.85 261.5H618.45C618.172 261.5 617.904 261.389 617.708 261.192C617.511 260.996 617.4 260.728 617.4 260.45V259.05C617.4 258.215 617.068 257.413 616.477 256.823C615.887 256.232 615.085 255.9 614.25 255.9H612.5M613.2 269.2V269.9M616 267.1V269.9M618.8 265V269.9M614.6 255.9H610.05C609.47 255.9 609 256.37 609 256.95V273.05C609 273.63 609.47 274.1 610.05 274.1H621.95C622.53 274.1 623 273.63 623 273.05V264.3C623 262.072 622.115 259.936 620.54 258.36C618.964 256.785 616.828 255.9 614.6 255.9Z" stroke="black" stroke-width="1.5" stroke-linecap="round" stroke-linejoin="round"/>
<path d="M609.59 204.37C609.798 205.251 609.804 206.168 609.608 207.052C609.412 207.935 609.018 208.763 608.456 209.473C607.894 210.183 607.179 210.757 606.364 211.151C605.549 211.545 604.655 211.75 603.75 211.75V206.95M609.59 204.37C611.5 202.979 613.054 201.155 614.124 199.049C615.195 196.943 615.752 194.613 615.75 192.25C613.387 192.248 611.058 192.805 608.951 193.876C606.845 194.947 605.022 196.5 603.631 198.41M609.59 204.37C607.852 205.641 605.86 206.521 603.75 206.95M603.75 206.95C603.647 206.971 603.543 206.991 603.439 207.01C602.532 206.291 601.71 205.469 600.991 204.562C601.01 204.458 601.029 204.354 601.05 204.25M603.631 198.41C602.75 198.202 601.833 198.195 600.949 198.392C600.065 198.588 599.237 198.982 598.527 199.544C597.817 200.105 597.243 200.821 596.849 201.636C596.455 202.451 596.25 203.345 596.25 204.25H601.05M603.631 198.41C602.36 200.148 601.479 202.14 601.05 204.25M598.811 206.64C598.153 207.129 597.642 207.789 597.332 208.548C597.022 209.307 596.926 210.136 597.054 210.946C597.864 211.074 598.693 210.977 599.452 210.668C600.211 210.358 600.871 209.846 601.36 209.188M610.5 199C610.5 199.398 610.342 199.779 610.061 200.061C609.779 200.342 609.398 200.5 609 200.5C608.602 200.5 608.221 200.342 607.939 200.061C607.658 199.779 607.5 199.398 607.5 199C607.5 198.602 607.658 198.221 607.939 197.939C608.221 197.658 608.602 197.5 609 197.5C609.398 197.5 609.779 197.658 610.061 197.939C610.342 198.221 610.5 198.602 610.5 199Z" stroke="black" stroke-width="1.5" stroke-linecap="round" stroke-linejoin="round"/>
<path d="M499.25 91.511C500.134 91.795 500.75 92.639 500.75 93.608V97.894C500.75 99.03 499.903 99.994 498.77 100.087C498.43 100.114 498.09 100.139 497.75 100.159V103.25L494.75 100.25C493.396 100.25 492.056 100.195 490.73 100.087C490.441 100.064 490.161 99.9813 489.905 99.845M499.25 91.511C499.095 91.4613 498.936 91.4294 498.774 91.416C496.096 91.1937 493.404 91.1937 490.726 91.416C489.595 91.51 488.75 92.473 488.75 93.608V97.894C488.75 98.731 489.21 99.474 489.905 99.845M499.25 91.511V89.637C499.25 88.016 498.098 86.611 496.49 86.402C494.421 86.1338 492.336 85.9995 490.25 86C488.135 86 486.052 86.137 484.01 86.402C482.402 86.611 481.25 88.016 481.25 89.637V95.863C481.25 97.484 482.402 98.889 484.01 99.098C484.587 99.173 485.167 99.238 485.75 99.292V104L489.905 99.845" stroke="black" stroke-width="1.5" stroke-linecap="round" stroke-linejoin="round"/>
<path d="M122 250.25V260C122 260.597 122.237 261.169 122.659 261.591C123.081 262.013 123.653 262.25 124.25 262.25H137.75C138.347 262.25 138.919 262.013 139.341 261.591C139.763 261.169 140 260.597 140 260V250.25M122 250.25V248C122 247.403 122.237 246.831 122.659 246.409C123.081 245.987 123.653 245.75 124.25 245.75H137.75C138.347 245.75 138.919 245.987 139.341 246.409C139.763 246.831 140 247.403 140 248V250.25M122 250.25H140M124.25 248H124.258V248.008H124.25V248ZM126.5 248H126.508V248.008H126.5V248ZM128.75 248H128.758V248.008H128.75V248Z" stroke="black" stroke-width="1.5" stroke-linecap="round" stroke-linejoin="round"/>
<defs>
<linearGradient id="paint0_linear_145_2" x1="249.39" y1="392.028" x2="274.998" y2="402.767" gradientUnits="userSpaceOnUse">
<stop stop-color="#249361"/>
<stop offset="1" stop-color="#3ECF8E"/>
</linearGradient>
<linearGradient id="paint1_linear_145_2" x1="238.037" y1="376.483" x2="249.716" y2="398.467" gradientUnits="userSpaceOnUse">
<stop/>
<stop offset="1" stop-opacity="0"/>
</linearGradient>
<clipPath id="clip0_145_2">
<rect width="314.961" height="64" fill="white" transform="translate(243 201)"/>
</clipPath>
<clipPath id="clip1_145_2">
<rect width="120.923" height="24" fill="white" transform="translate(40 181)"/>
</clipPath>
</defs>
</svg>
